<svg width="25" height="16" viewBox="0 0 25 16" fill="none" xmlns="http://www.w3.org/2000/svg">
<path d="M0.258805 3.95934L3.79452 0.29247C3.97532 0.105192 4.22041 0 4.47595 0C4.73148 0 4.97657 0.105192 5.15738 0.29247L8.69309 3.95934C8.78783 4.05089 8.86382 4.1613 8.91652 4.28397C8.96923 4.40664 8.99757 4.53907 8.99985 4.67335C9.00213 4.80763 8.97832 4.941 8.92982 5.06553C8.88132 5.19005 8.80913 5.30317 8.71757 5.39813C8.626 5.4931 8.51693 5.56796 8.39686 5.61826C8.27679 5.66856 8.14818 5.69326 8.0187 5.69089C7.88923 5.68852 7.76154 5.65913 7.64325 5.60447C7.52497 5.54981 7.41851 5.471 7.33023 5.37275L5.44023 3.41264L5.44023 14.9999C5.44023 15.2652 5.33864 15.5195 5.1578 15.7071C4.97696 15.8946 4.73169 16 4.47595 16C4.2202 16 3.97493 15.8946 3.79409 15.7071C3.61326 15.5195 3.51166 15.2652 3.51166 14.9999L3.51166 3.41264L1.62166 5.37275C1.43887 5.5494 1.19709 5.64557 0.947276 5.641C0.69746 5.63643 0.459108 5.53147 0.282434 5.34824C0.105761 5.16502 0.00455856 4.91782 0.000150681 4.65874C-0.0042572 4.39966 0.0884733 4.14892 0.258805 3.95934Z" fill="#3E3E3E"/>
<rect x="11" y="2.30078" width="14" height="1.8" rx="0.9" fill="#3E3E3E"/>
<rect x="11" y="7.10156" width="11" height="1.8" rx="0.9" fill="#3E3E3E"/>
<rect x="11" y="11.9004" width="8" height="1.8" rx="0.9" fill="#3E3E3E"/>
</svg>
