<svg width="25" height="16" viewBox="0 0 25 16" fill="none" xmlns="http://www.w3.org/2000/svg">
<path d="M8.7412 12.0407L5.20548 15.7075C5.02468 15.8948 4.77959 16 4.52405 16C4.26852 16 4.02343 15.8948 3.84262 15.7075L0.306911 12.0407C0.212171 11.9491 0.136182 11.8387 0.0834782 11.716C0.0307742 11.5934 0.00243451 11.4609 0.00015007 11.3267C-0.00213437 11.1924 0.021683 11.059 0.0701815 10.9345C0.11868 10.8099 0.190866 10.6968 0.282433 10.6019C0.374 10.5069 0.483072 10.432 0.603142 10.3817C0.723213 10.3314 0.851822 10.3067 0.981297 10.3091C1.11077 10.3115 1.23846 10.3409 1.35675 10.3955C1.47503 10.4502 1.58149 10.529 1.66977 10.6273L3.55977 12.5874V1.00006C3.55977 0.734824 3.66136 0.480456 3.8422 0.292909C4.02304 0.105363 4.26831 0 4.52405 0C4.7798 0 5.02507 0.105363 5.20591 0.292909C5.38674 0.480456 5.48834 0.734824 5.48834 1.00006V12.5874L7.37834 10.6273C7.56113 10.4506 7.80291 10.3544 8.05272 10.359C8.30254 10.3636 8.54089 10.4685 8.71757 10.6518C8.89424 10.835 8.99544 11.0822 8.99985 11.3413C9.00426 11.6003 8.91153 11.8511 8.7412 12.0407Z" fill="#3E3E3E"/>
<rect x="11" y="2.30078" width="14" height="1.8" rx="0.9" fill="#3E3E3E"/>
<rect x="11" y="7.10156" width="11" height="1.8" rx="0.9" fill="#3E3E3E"/>
<rect x="11" y="11.9004" width="8" height="1.8" rx="0.9" fill="#3E3E3E"/>
</svg>
