<svg width="253" height="100" viewBox="0 0 253 100" fill="none" xmlns="http://www.w3.org/2000/svg">
<rect x="0.5" y="0.5" width="252" height="99" rx="11.5" fill="white" stroke="#E6E6E6"/>
<path fill-rule="evenodd" clip-rule="evenodd" d="M24.0001 72.6305H83.758V43.4275L53.8791 72.6305L24.0001 43.4275L24.0001 72.6305Z" fill="#00CD69"/>
<path d="M106.45 27.8479H120.045V32.1892H111.431V35.3728H119.264V39.7141H111.431V46.2656H106.45V27.8479ZM121.405 39.9509C121.405 38.7757 121.62 37.7364 122.051 36.8331C122.482 35.9298 123.047 35.2281 123.747 34.7282C124.447 34.2283 125.174 33.8556 125.928 33.61C126.681 33.3645 127.435 33.2417 128.189 33.2417C129.266 33.2417 130.226 33.3996 131.069 33.7153C131.913 34.031 132.581 34.452 133.075 34.9782C133.568 35.5044 133.968 36.114 134.273 36.8068C134.578 37.4997 134.726 38.2276 134.717 38.9906C134.708 39.7536 134.632 40.521 134.488 41.2928H126.035C126.52 42.5908 127.893 43.2398 130.154 43.2398C131.536 43.2398 132.774 43.0381 133.869 42.6347V45.9499C132.505 46.4234 130.908 46.6602 129.077 46.6602C126.87 46.6602 125.039 46.0682 123.586 44.8843C122.132 43.7003 121.405 42.0558 121.405 39.9509ZM130.316 38.6091C130.405 38.1881 130.293 37.7277 129.979 37.2278C129.665 36.7279 129.104 36.4779 128.297 36.4779C127.651 36.4779 127.103 36.6709 126.654 37.0568C126.206 37.4426 125.981 37.9601 125.981 38.6091H130.316ZM140.885 35.3465C141.98 33.7854 143.667 33.1276 145.946 33.3732V37.7145C145.031 37.5216 144.147 37.5523 143.295 37.8066C142.442 38.0609 141.819 38.4863 141.424 39.0827V46.2656H136.847V33.6363H140.885V35.3465ZM152.133 46.2656H147.556V33.6363H151.594V34.9782C151.989 34.5221 152.541 34.1187 153.25 33.7679C153.959 33.4171 154.735 33.2417 155.578 33.2417C157.301 33.2417 158.576 33.8205 159.401 34.9782C160.675 33.8205 162.048 33.2417 163.52 33.2417C164.435 33.2417 165.225 33.4039 165.889 33.7284C166.553 34.0529 167.046 34.4827 167.369 35.0177C167.692 35.5526 167.926 36.0788 168.069 36.5963C168.213 37.1137 168.285 37.6356 168.285 38.1618V46.2656H163.708V38.5565C163.708 38.0829 163.569 37.7145 163.291 37.4514C163.013 37.1883 162.658 37.0568 162.228 37.0568C161.528 37.0568 160.9 37.3286 160.343 37.8724V38.1618V46.2656H155.767V38.5565C155.767 38.0829 155.628 37.7145 155.35 37.4514C155.071 37.1883 154.717 37.0568 154.286 37.0568C153.443 37.0568 152.725 37.4251 152.133 38.1618V46.2656ZM170.417 39.9509C170.417 38.7757 170.632 37.7364 171.063 36.8331C171.493 35.9298 172.059 35.2281 172.759 34.7282C173.459 34.2283 174.185 33.8556 174.939 33.61C175.693 33.3645 176.447 33.2417 177.2 33.2417C178.277 33.2417 179.237 33.3996 180.081 33.7153C180.924 34.031 181.593 34.452 182.086 34.9782C182.58 35.5044 182.979 36.114 183.284 36.8068C183.59 37.4997 183.738 38.2276 183.729 38.9906C183.72 39.7536 183.643 40.521 183.5 41.2928H175.047C175.531 42.5908 176.904 43.2398 179.166 43.2398C180.548 43.2398 181.786 43.0381 182.881 42.6347V45.9499C181.517 46.4234 179.919 46.6602 178.089 46.6602C175.881 46.6602 174.051 46.0682 172.597 44.8843C171.144 43.7003 170.417 42.0558 170.417 39.9509ZM179.327 38.6091C179.417 38.1881 179.305 37.7277 178.991 37.2278C178.677 36.7279 178.116 36.4779 177.308 36.4779C176.662 36.4779 176.115 36.6709 175.666 37.0568C175.217 37.4426 174.993 37.9601 174.993 38.6091H179.327ZM189.924 35.3465C191.019 33.7854 192.706 33.1276 194.985 33.3732V37.7145C194.07 37.5216 193.186 37.5523 192.334 37.8066C191.481 38.0609 190.858 38.4863 190.463 39.0827V46.2656H185.886V33.6363H189.924V35.3465ZM196.717 27.0586H201.294V46.2656H196.717V27.0586ZM216.324 42.661C216.324 43.1872 216.62 43.4503 217.213 43.4503C217.392 43.4503 217.563 43.424 217.724 43.3714V46.134C217.042 46.3971 216.27 46.5287 215.409 46.5287C213.973 46.5287 212.95 46.0639 212.34 45.1342C211.012 46.1516 209.513 46.6602 207.844 46.6602C206.57 46.6602 205.502 46.3094 204.641 45.6078C203.78 44.9062 203.349 43.959 203.349 42.7662C203.349 42.012 203.519 41.3498 203.86 40.7797C204.201 40.2097 204.654 39.7756 205.22 39.4774C205.785 39.1792 206.377 38.9599 206.996 38.8196C207.616 38.6793 208.266 38.6091 208.948 38.6091C209.917 38.6091 210.85 38.7056 211.748 38.8985V38.4512C211.748 37.9776 211.519 37.5961 211.061 37.3067C210.604 37.0173 209.935 36.8726 209.056 36.8726C207.692 36.8726 206.184 37.1971 204.533 37.8461V34.0836C206.292 33.5223 207.97 33.2417 209.567 33.2417C211.775 33.2417 213.453 33.689 214.601 34.5835C215.75 35.4781 216.324 36.9954 216.324 39.1353V42.661ZM208.06 42.3979C208.06 42.7487 208.203 43.0425 208.491 43.2793C208.778 43.5161 209.155 43.6345 209.621 43.6345C210.429 43.6345 211.138 43.4152 211.748 42.9767V41.2665C211.263 41.1086 210.716 41.0297 210.106 41.0297C208.742 41.0297 208.06 41.4857 208.06 42.3979ZM223.678 35.3465C224.773 33.7854 226.46 33.1276 228.739 33.3732V37.7145C227.824 37.5216 226.94 37.5523 226.087 37.8066C225.235 38.0609 224.611 38.4863 224.216 39.0827V46.2656H219.64V33.6363H223.678V35.3465Z" fill="black"/>
<path d="M123.98 54.1589H125.918V72.5766H123.657V58.3424L116.9 68.2353H115.5L108.744 58.3424V72.5766H106.482V54.1589H108.42L116.2 65.5252L123.98 54.1589ZM140.922 69.9455C140.922 70.5943 141.254 70.919 141.918 70.919C142.206 70.919 142.538 70.8576 142.915 70.7348V72.445C142.376 72.638 141.838 72.7344 141.299 72.7344C140.061 72.7344 139.271 72.2257 138.93 71.2084C137.548 72.331 135.87 72.8923 133.896 72.8923C132.64 72.8923 131.568 72.5634 130.679 71.9056C129.791 71.2479 129.347 70.2963 129.347 69.0509C129.347 67.56 129.917 66.4768 131.056 65.8015C132.196 65.1263 133.573 64.7885 135.188 64.7885C136.373 64.7885 137.566 64.9201 138.769 65.1832V64.7359C138.769 63.7712 138.446 63.0038 137.8 62.4337C137.154 61.8637 136.247 61.5786 135.081 61.5786C133.448 61.5786 131.877 61.8944 130.37 62.5258V60.4735C132.057 59.9123 133.699 59.6316 135.296 59.6316C137.055 59.6316 138.432 60.0921 139.428 61.0129C140.424 61.9338 140.922 63.2626 140.922 64.999V69.9455ZM131.554 68.9457C131.554 69.6473 131.828 70.1779 132.375 70.5375C132.923 70.8971 133.582 71.0769 134.354 71.0769C136.131 71.0769 137.602 70.463 138.769 69.2351V66.9197C137.548 66.6742 136.454 66.5514 135.485 66.5514C134.39 66.5514 133.461 66.74 132.698 67.117C131.936 67.4941 131.554 68.1037 131.554 68.9457ZM156.983 72.5766H154.453L149.715 67.1565H147.184V72.5766H145.031V54.1589H147.184V65.2095H149.796L153.887 59.9473H156.391L151.491 66.2357L156.983 72.5766ZM160.489 56.027L162.616 55.5008V59.9473H167.785V61.8944H162.616V68.4195C162.616 69.3491 162.836 69.9981 163.276 70.3664C163.715 70.7348 164.42 70.919 165.389 70.919C166.322 70.919 167.273 70.726 168.242 70.3402V72.2872C167.148 72.6731 165.99 72.866 164.77 72.866C163.46 72.866 162.419 72.5195 161.647 71.8267C160.875 71.1339 160.489 70.1209 160.489 68.7878V61.8944H158.067V59.9473H160.489V56.027ZM181.491 69.9455C181.491 70.5944 181.823 70.919 182.487 70.919C182.774 70.919 183.106 70.8576 183.483 70.7348V72.445C182.945 72.638 182.406 72.7344 181.868 72.7344C180.63 72.7344 179.84 72.2257 179.499 71.2084C178.117 72.331 176.439 72.8923 174.465 72.8923C173.209 72.8923 172.136 72.5634 171.248 71.9056C170.36 71.2479 169.916 70.2963 169.916 69.0509C169.916 67.56 170.485 66.4768 171.625 65.8015C172.765 65.1262 174.142 64.7885 175.757 64.7885C176.942 64.7885 178.135 64.9201 179.338 65.1832V64.7359C179.338 63.7712 179.015 63.0038 178.368 62.4337C177.722 61.8637 176.816 61.5786 175.649 61.5786C174.016 61.5786 172.446 61.8944 170.939 62.5258V60.4735C172.625 59.9123 174.268 59.6316 175.865 59.6316C177.624 59.6316 179.001 60.092 179.997 61.0129C180.993 61.9338 181.491 63.2625 181.491 64.999V69.9455ZM172.123 68.9457C172.123 69.6473 172.397 70.1779 172.944 70.5375C173.491 70.8971 174.151 71.0769 174.923 71.0769C176.699 71.0769 178.171 70.463 179.338 69.2351V66.9197C178.117 66.6742 177.022 66.5514 176.053 66.5514C174.959 66.5514 174.03 66.7399 173.267 67.117C172.504 67.4941 172.123 68.1037 172.123 68.9457ZM185.734 54.1589H187.887V61.8417C189.18 60.3683 190.849 59.6316 192.895 59.6316C194.743 59.6316 196.282 60.2631 197.511 61.526C198.741 62.7889 199.355 64.3676 199.355 66.262C199.355 68.1563 198.741 69.735 197.511 70.9979C196.282 72.2609 194.743 72.8923 192.895 72.8923C190.867 72.8923 189.126 72.0854 187.672 70.4717V72.5766H185.734V54.1589ZM195.896 69.6561C196.767 68.7966 197.202 67.6652 197.202 66.262C197.202 64.8587 196.767 63.7273 195.896 62.8678C195.026 62.0084 193.944 61.5786 192.652 61.5786C191.558 61.5786 190.588 61.8768 189.745 62.4732C188.901 63.0695 188.282 63.8063 187.887 64.6833V67.8406C188.282 68.7177 188.901 69.4544 189.745 70.0507C190.588 70.6471 191.558 70.9453 192.652 70.9453C193.944 70.9453 195.026 70.5156 195.896 69.6561ZM204.377 72.5766H202.224V59.9473H204.377V72.5766ZM204.297 54.9351C204.566 55.1719 204.7 55.5008 204.7 55.9218C204.7 56.3428 204.566 56.6716 204.297 56.9084C204.027 57.1452 203.695 57.2636 203.3 57.2636C202.906 57.2636 202.574 57.1452 202.304 56.9084C202.035 56.6716 201.901 56.3428 201.901 55.9218C201.901 55.5008 202.035 55.1719 202.304 54.9351C202.574 54.6984 202.906 54.5799 203.3 54.5799C203.695 54.5799 204.027 54.6984 204.297 54.9351Z" fill="black"/>
<path fill-rule="evenodd" clip-rule="evenodd" d="M53.8792 59.8534C63.1614 59.8534 70.6861 52.4989 70.6861 43.4267C70.6861 34.3545 63.1614 27 53.8792 27C44.5969 27 37.0722 34.3545 37.0722 43.4267C37.0722 52.4989 44.5969 59.8534 53.8792 59.8534Z" fill="#FFAA46"/>
</svg>
