<svg version="1.0" xmlns="http://www.w3.org/2000/svg"
 width="67.000000pt" height="67.000000pt" viewBox="0 0 67.000000 67.000000"
 preserveAspectRatio="xMidYMid meet">

<g transform="translate(0.000000,67.000000) scale(0.100000,-0.100000)"
fill="#000000" stroke="none">
<path d="M121 647 c-6 -14 -15 -28 -21 -32 -28 -17 -80 -156 -94 -252 -14 -97
35 -198 110 -225 26 -9 34 -18 34 -36 0 -35 28 -82 55 -92 53 -20 140 20 184
85 13 19 33 62 46 96 l22 61 23 -37 c30 -48 101 -130 113 -130 5 0 15 18 24
40 33 91 45 155 46 240 0 73 -4 98 -21 132 -27 51 -56 81 -100 99 -28 12 -36
12 -60 0 -30 -15 -66 -73 -76 -122 -4 -19 -16 -35 -31 -42 -13 -6 -42 -27 -63
-47 -22 -19 -42 -35 -45 -35 -3 0 -9 17 -12 38 -12 66 -45 158 -75 206 -17 26
-30 51 -30 56 0 21 -21 19 -29 -3z m93 -222 c29 -109 16 -185 -39 -233 -41
-36 -65 -33 -100 12 -37 49 -46 108 -30 192 15 77 52 174 66 174 5 0 9 -66 9
-146 0 -112 3 -145 13 -142 9 3 13 46 15 154 l4 149 23 -50 c13 -27 31 -77 39
-110z m354 120 c43 -36 65 -97 64 -180 0 -74 -18 -181 -31 -189 -4 -3 -18 56
-31 132 -23 137 -30 159 -48 148 -5 -3 1 -60 15 -142 13 -75 22 -139 19 -142
-8 -7 -27 19 -60 78 -20 36 -25 63 -28 135 -3 68 -7 89 -17 87 -19 -4 -5 47
21 76 28 29 59 28 96 -3z m-237 -267 c-39 -68 -71 -127 -71 -131 0 -4 6 -7 14
-7 7 0 46 57 86 126 39 69 74 123 77 120 12 -12 -21 -164 -47 -221 -56 -122
-169 -172 -200 -89 -16 41 -12 63 19 102 16 20 34 55 41 77 7 22 20 49 29 59
24 29 113 97 118 92 3 -3 -27 -60 -66 -128z"/>
</g>
</svg>
