<svg width="10" height="10" viewBox="0 0 10 10" fill="none" xmlns="http://www.w3.org/2000/svg">
<path d="M9 6.36136C8.375 6.36136 7.775 6.25958 7.215 6.07127C7.04 6.01529 6.845 6.05601 6.705 6.19342L5.605 7.31306C4.19 6.5802 3.03 5.40458 2.31 3.96431L3.41 2.83958C3.55 2.70217 3.59 2.50368 3.535 2.32556C3.35 1.75556 3.25 1.14485 3.25 0.508684C3.25 0.228774 3.025 -0.000244141 2.75 -0.000244141H1C0.725 -0.000244141 0.5 0.228774 0.5 0.508684C0.5 5.28752 4.305 9.16047 9 9.16047C9.275 9.16047 9.5 8.93145 9.5 8.65154V6.87029C9.5 6.59038 9.275 6.36136 9 6.36136ZM5 -0.000244141V5.08904L6.5 3.56226H9.5V-0.000244141H5Z" fill="#377BE1"/>
</svg>
