<svg version="1.0" xmlns="http://www.w3.org/2000/svg"
 width="62.000000pt" height="68.000000pt" viewBox="0 0 62.000000 68.000000"
 preserveAspectRatio="xMidYMid meet">

<g transform="translate(0.000000,68.000000) scale(0.100000,-0.100000)"
fill="#000000" stroke="none">
<path d="M179 664 c-46 -10 -87 -34 -152 -86 l-28 -23 43 -63 c32 -47 48 -62
62 -58 17 4 18 -5 15 -212 l-4 -217 85 0 85 0 11 70 c11 73 13 72 31 -25 l8
-45 80 0 80 0 -3 218 c-3 215 -3 219 16 213 16 -6 28 5 61 50 23 32 41 61 41
65 0 21 -116 99 -163 110 -65 15 -205 17 -268 3z m51 -48 c11 -31 48 -56 81
-56 28 0 79 43 79 66 0 8 7 14 15 14 12 0 15 -13 15 -60 l0 -60 -110 0 -110 0
0 60 c0 62 13 79 30 36z m130 17 c0 -14 -34 -43 -51 -43 -18 0 -49 25 -49 40
0 4 23 8 50 8 28 1 50 -2 50 -5z m167 -47 c23 -17 42 -35 42 -41 0 -5 -12 -25
-28 -44 l-28 -34 -32 22 c-29 21 -31 27 -31 81 0 68 5 69 77 16z m-366 -1 c3
-81 4 -77 -32 -99 -17 -10 -31 -16 -33 -14 -1 1 -12 16 -24 32 -30 40 -28 50
20 85 55 40 68 40 69 -4z m282 -108 c12 -10 16 -54 21 -224 l6 -213 -54 0
c-58 0 -66 7 -66 60 0 65 -40 112 -65 76 -7 -9 -16 -43 -19 -76 l-7 -60 -56 0
-56 0 7 213 c6 180 9 214 23 224 22 17 245 17 266 0z"/>
<path d="M217 433 c-11 -11 -8 -103 4 -126 17 -32 28 -37 90 -37 76 0 89 15
89 103 l0 67 -88 0 c-49 0 -92 -3 -95 -7z m151 -75 l-3 -53 -50 -3 c-38 -3
-52 1 -62 14 -14 19 -18 76 -6 87 3 4 33 7 65 7 l59 0 -3 -52z"/>
</g>
</svg>
