<svg version="1.0" xmlns="http://www.w3.org/2000/svg"
 width="59.000000pt" height="74.000000pt" viewBox="0 0 59.000000 74.000000"
 preserveAspectRatio="xMidYMid meet">

<g transform="translate(0.000000,74.000000) scale(0.100000,-0.100000)"
fill="#000000" stroke="none">
<path d="M152 724 c-28 -19 -29 -58 -2 -77 19 -13 21 -23 18 -103 -3 -88 -3
-89 -28 -86 -14 2 -49 0 -79 -3 l-53 -7 4 -56 c2 -32 14 -77 27 -103 22 -44
22 -48 8 -97 -25 -84 3 -149 77 -177 36 -14 70 -16 178 -13 146 3 180 14 212
68 30 51 21 101 -44 242 l-60 130 0 97 c1 68 5 102 15 115 21 28 19 52 -7 70
-17 12 -49 16 -133 16 -84 0 -116 -4 -133 -16z m256 -36 c-3 -9 -40 -14 -126
-16 -104 -2 -122 0 -122 13 0 13 20 15 126 15 96 0 125 -3 122 -12z m-36 -150
c4 -101 5 -105 66 -237 72 -154 77 -188 33 -232 -25 -24 -38 -29 -79 -29 l-49
0 -27 73 c-22 60 -25 79 -16 101 26 69 7 129 -59 189 l-41 37 0 100 0 100 84
0 84 0 4 -102z m-182 -133 c51 -26 90 -84 90 -134 0 -41 -14 -46 -40 -14 -28
36 -58 56 -71 47 -7 -4 0 -18 18 -38 16 -17 36 -40 44 -50 13 -18 12 -19 -26
-12 -63 12 -113 50 -141 109 -31 67 -32 104 -1 110 31 7 97 -3 127 -18z m25
-232 c41 -5 44 -8 64 -56 33 -77 33 -77 -65 -77 -81 0 -87 1 -115 29 -31 32
-38 76 -19 125 l9 26 41 -21 c23 -12 61 -24 85 -26z"/>
</g>
</svg>
