<svg width="210" height="48" viewBox="0 0 210 48" fill="none" xmlns="http://www.w3.org/2000/svg">
<path d="M130.288 35.5465C126.937 35.5465 124.52 38.1305 124.52 41.7739C124.52 45.4174 126.937 48 130.288 48C133.638 48 136.074 45.4174 136.074 41.7739C136.074 38.1305 133.656 35.5465 130.288 35.5465ZM130.288 46.1364C128.094 46.1364 126.627 44.3225 126.627 41.7739C126.627 39.2253 128.094 37.4115 130.288 37.4115C132.481 37.4115 133.983 39.2253 133.983 41.7739C133.983 44.3225 132.499 46.1337 130.288 46.1337V46.1364Z" fill="#377BE1"/>
<path d="M139.423 35.5464C139.256 35.5393 139.09 35.566 138.933 35.6249C138.777 35.6839 138.635 35.7738 138.515 35.8893C138.395 36.0047 138.301 36.1431 138.237 36.2961C138.173 36.4491 138.142 36.6133 138.144 36.7788C138.144 37.4624 138.646 37.8265 139.13 37.9248C138.956 38.78 138.318 39.9089 137.799 40.5074H139.254C139.824 39.9599 140.74 38.4722 140.74 37.0185C140.736 36.0939 140.148 35.5464 139.423 35.5464Z" fill="#377BE1"/>
<path d="M142.739 40.7641H147.298L142.739 46.3405V47.7943H149.734V46.1009H145.192L149.734 40.5414V39.0707H142.739V40.7641Z" fill="#377BE1"/>
<path d="M152.703 35.2729C152.467 35.2778 152.237 35.352 152.042 35.4861C151.848 35.6202 151.698 35.8082 151.611 36.0265C151.525 36.2447 151.505 36.4836 151.555 36.7128C151.605 36.9421 151.722 37.1517 151.892 37.315C152.062 37.4784 152.277 37.5884 152.51 37.6311C152.743 37.6738 152.983 37.6474 153.201 37.5551C153.419 37.4628 153.604 37.3088 153.733 37.1125C153.863 36.9161 153.931 36.6862 153.929 36.4516C153.929 36.2938 153.897 36.1376 153.835 35.9922C153.773 35.8469 153.682 35.7153 153.568 35.6054C153.454 35.4955 153.318 35.4094 153.17 35.3523C153.021 35.2952 152.863 35.2682 152.703 35.2729Z" fill="#377BE1"/>
<path d="M153.67 39.0707H151.701V47.7943H153.67V39.0707Z" fill="#377BE1"/>
<path d="M165.862 38.8651C165.315 38.8568 164.775 38.98 164.287 39.2244C163.799 39.4687 163.379 39.8268 163.062 40.2678C162.802 39.832 162.43 39.4724 161.984 39.2259C161.538 38.9794 161.034 38.8549 160.523 38.8651C160.011 38.8681 159.508 38.995 159.057 39.2347C158.606 39.4743 158.221 39.8196 157.935 40.2403V39.0773H156.035V47.8022H158.004V41.5853C158.197 41.2878 158.463 41.0439 158.777 40.8764C159.091 40.7089 159.443 40.6234 159.8 40.6279C160.802 40.6279 161.475 41.2605 161.475 42.4235V47.793H163.444V41.4805C163.663 41.2136 163.94 40.9985 164.253 40.8506C164.567 40.7026 164.91 40.6257 165.258 40.6253C166.276 40.6253 166.916 41.2579 166.916 42.4588V47.797H168.879V42.0476C168.879 39.926 167.572 38.8651 165.862 38.8651Z" fill="#377BE1"/>
<path d="M170.783 40.7641H175.342L170.783 46.3405V47.7943H177.778V46.1009H173.236L177.778 40.5414V39.0707H170.783V40.7641Z" fill="#377BE1"/>
<path d="M180.747 35.2729C180.511 35.2778 180.281 35.352 180.086 35.4861C179.892 35.6202 179.742 35.8082 179.655 36.0265C179.569 36.2447 179.549 36.4836 179.599 36.7128C179.649 36.9421 179.766 37.1517 179.936 37.315C180.106 37.4784 180.321 37.5884 180.554 37.6311C180.787 37.6738 181.027 37.6474 181.245 37.5551C181.463 37.4628 181.648 37.3088 181.778 37.1125C181.907 36.9161 181.975 36.6862 181.973 36.4516C181.973 36.2938 181.941 36.1376 181.879 35.9922C181.817 35.8469 181.726 35.7153 181.612 35.6054C181.498 35.4955 181.362 35.4094 181.214 35.3523C181.065 35.2952 180.907 35.2682 180.747 35.2729Z" fill="#377BE1"/>
<path d="M181.714 39.0707H179.745V47.7943H181.714V39.0707Z" fill="#377BE1"/>
<path d="M188.726 38.8652C188.188 38.8532 187.656 38.9736 187.176 39.2154C186.697 39.4572 186.286 39.8129 185.979 40.2508V39.0878L185.997 39.0708H184.085V47.7957H186.053V41.6024C186.486 40.9698 187.21 40.628 188.037 40.628C189.125 40.628 189.868 41.2605 189.868 42.6291V47.7957H191.837V42.1498C191.834 39.926 190.431 38.8652 188.726 38.8652Z" fill="#377BE1"/>
<path d="M196.082 39.0707H194.114V47.7943H196.082V39.0707Z" fill="#377BE1"/>
<path d="M195.115 35.2729C194.878 35.2778 194.648 35.352 194.453 35.4861C194.259 35.6202 194.109 35.8082 194.023 36.0265C193.936 36.2447 193.916 36.4836 193.966 36.7128C194.016 36.9421 194.134 37.1517 194.303 37.315C194.473 37.4784 194.688 37.5884 194.921 37.6311C195.154 37.6738 195.394 37.6474 195.612 37.5551C195.83 37.4628 196.015 37.3088 196.145 37.1125C196.274 36.9161 196.342 36.6862 196.34 36.4516C196.34 36.2938 196.308 36.1376 196.246 35.9922C196.184 35.8469 196.094 35.7153 195.979 35.6054C195.865 35.4955 195.729 35.4094 195.581 35.3523C195.432 35.2952 195.274 35.2682 195.115 35.2729Z" fill="#377BE1"/>
<path d="M206.15 39.0708H203.975L201.522 42.4065H200.417V35.3593H198.448V47.7944H200.417V44.0147H201.488L203.992 47.7944H206.271L203.163 43.1425L206.15 39.0708Z" fill="#377BE1"/>
<path d="M209.742 39.0707H207.773V47.7943H209.742V39.0707Z" fill="#377BE1"/>
<path d="M208.774 37.651C209.011 37.6492 209.242 37.5782 209.438 37.4467C209.634 37.3153 209.786 37.1294 209.876 36.9124C209.966 36.6955 209.989 36.4571 209.942 36.2272C209.895 35.9973 209.781 35.7863 209.613 35.6206C209.446 35.4549 209.233 35.3419 209.001 35.2959C208.769 35.2499 208.528 35.2728 208.309 35.3619C208.09 35.451 207.902 35.6022 207.77 35.7965C207.638 35.9908 207.566 36.2196 207.564 36.454C207.562 36.612 207.592 36.7689 207.652 36.9153C207.711 37.0618 207.8 37.1948 207.913 37.3064C208.026 37.4181 208.161 37.5062 208.308 37.5654C208.456 37.6246 208.615 37.6537 208.774 37.651Z" fill="#377BE1"/>
<path d="M60.975 30.0827H55.6385L63.3669 10.9487H68.9836L76.7066 30.0827H71.3649L70.2424 27.0705H62.0976L60.975 30.0827ZM65.6649 17.4525L63.6419 22.9739H68.698L66.6724 17.4525C66.4457 16.8222 66.2767 16.1731 66.1673 15.5129C66.0594 16.1731 65.8912 16.8223 65.6649 17.4525ZM78.2259 26.0503C77.7023 24.4047 77.7023 22.6394 78.2259 20.9938C78.4829 20.1937 78.872 19.4413 79.3775 18.7673C79.9146 18.0689 80.6196 17.5146 81.4283 17.1552C82.3443 16.7428 83.3416 16.5374 84.3477 16.554C85.4716 16.554 86.4218 16.7636 87.1984 17.1827C87.975 17.6018 88.5506 18.1212 88.9252 18.7411V16.9626H93.1377V29.5353C93.1377 30.7926 92.9174 31.8905 92.4766 32.8291C92.0884 33.7063 91.4606 34.4588 90.6639 35.0018C89.8905 35.5154 89.0367 35.899 88.1372 36.1372C87.1655 36.3902 86.1642 36.5144 85.1595 36.5066C83.0255 36.5066 81.0862 36.0962 79.3418 35.2755V31.3138C80.8588 32.2253 82.5812 32.6806 84.509 32.6798C87.0741 32.6798 88.3566 31.7233 88.3566 29.8103V29.0167C87.387 30.0015 86.0498 30.4935 84.345 30.4926C83.3391 30.5101 82.3419 30.3057 81.4256 29.8941C80.6166 29.5345 79.9116 28.9798 79.3749 28.2806C78.8697 27.6055 78.4806 26.8524 78.2232 26.0516L78.2259 26.0503ZM88.3566 22.0192C88.116 21.5448 87.7506 21.1434 87.2989 20.8575C86.8073 20.5377 86.2302 20.3712 85.6421 20.3795C84.706 20.3795 83.9898 20.689 83.4935 21.3081C83.0103 21.9472 82.7491 22.7242 82.7491 23.5227C82.7491 24.3212 83.0103 25.0982 83.4935 25.7373C83.9898 26.3572 84.706 26.6667 85.6421 26.6658C86.2303 26.6748 86.8076 26.5083 87.2989 26.1878C87.7543 25.9035 88.1231 25.502 88.3659 25.0262L88.3566 22.0192ZM100.98 18.7385C102.126 17.1172 103.886 16.434 106.259 16.6889V21.1994C105.344 20.9974 104.392 21.0303 103.493 21.295C102.603 21.5569 101.952 21.9987 101.542 22.6203V30.0853H96.7725V16.9626H100.985V18.7385H100.98ZM110.307 28.6749C108.857 27.4639 108.131 25.7465 108.13 23.5227C108.129 21.2989 108.857 19.5811 110.312 18.3692C111.763 17.1565 113.565 16.5505 115.717 16.5514C117.87 16.5523 119.672 17.1582 121.124 18.3692C122.575 19.5811 123.3 21.2985 123.3 23.5214C123.3 25.7443 122.575 27.4617 121.124 28.6735C119.673 29.8863 117.871 30.4922 115.717 30.4913C113.564 30.4905 111.762 29.885 110.312 28.6749H110.307ZM117.74 25.5723C118.17 25.0266 118.385 24.3434 118.385 23.5227C118.385 22.702 118.17 22.0188 117.74 21.4731C117.309 20.9256 116.635 20.6519 115.718 20.6519C114.802 20.6519 114.127 20.9256 113.695 21.4731C113.266 22.0196 113.051 22.7028 113.05 23.5227C113.049 24.3425 113.264 25.0257 113.695 25.5723C114.127 26.1197 114.801 26.3934 115.718 26.3934C116.636 26.3934 117.31 26.1197 117.74 25.5723ZM141.332 30.0827H125.523V26.6658L134.059 15.4592H126.028V10.9487H141.08V14.3656L132.518 25.5723H141.336L141.332 30.0827ZM167.356 30.0827H162.583V16.9626H166.795V18.3561C167.326 17.7891 167.969 17.3363 168.684 17.026C169.399 16.7158 170.171 16.5547 170.951 16.5527C172.748 16.5527 174.077 17.1539 174.939 18.3561C176.268 17.1539 177.701 16.5527 179.236 16.5527C180.191 16.5527 181.014 16.7212 181.707 17.0582C182.343 17.3451 182.88 17.8105 183.252 18.3967C183.569 18.9083 183.815 19.4604 183.982 20.0377C184.13 20.5674 184.206 21.1145 184.206 21.6643V30.0827H179.432V22.0742C179.432 21.5818 179.287 21.1989 178.997 20.9256C178.848 20.7883 178.674 20.6813 178.483 20.611C178.293 20.5406 178.09 20.5083 177.887 20.5157C177.158 20.5157 176.503 20.7982 175.923 21.3631V30.0827H171.148V22.0742C171.148 21.5818 171.003 21.1989 170.713 20.9256C170.565 20.7884 170.39 20.6815 170.2 20.6112C170.009 20.5409 169.807 20.5084 169.604 20.5157C168.722 20.5157 167.973 20.8981 167.356 21.663V30.0827ZM192.421 30.0827H187.647V16.9626H192.421V30.0827ZM192.757 12.5334C192.757 13.3908 192.5 14.0334 191.985 14.4612C191.47 14.889 190.82 15.1029 190.033 15.1029C189.247 15.1029 188.596 14.889 188.082 14.4612C187.567 14.0334 187.31 13.3908 187.31 12.5334C187.31 11.6952 187.572 11.0622 188.096 10.6344C188.643 10.1962 189.331 9.96663 190.035 9.98745C190.821 9.98745 191.471 10.2018 191.986 10.6305C192.501 11.0592 192.758 11.6935 192.757 12.5334ZM200.224 18.4661C201.44 17.1905 202.872 16.5527 204.521 16.5527C206.284 16.5527 207.622 17.0582 208.536 18.0693C209.45 19.0803 209.909 20.3695 209.913 21.9367V30.0827H205.138V22.5601C205.138 21.8869 204.951 21.377 204.576 21.0304C204.202 20.6838 203.705 20.5092 203.087 20.5066C202.17 20.5066 201.403 20.8894 200.785 21.6551V30.0736H196.011V16.9626H200.224V18.4661ZM154.798 28.3068C154.424 28.9267 153.848 29.4458 153.071 29.864C152.293 30.2822 151.343 30.4918 150.22 30.4926C149.214 30.5093 148.216 30.3039 147.299 29.8915C146.491 29.532 145.787 28.9778 145.25 28.2793C144.744 27.6056 144.355 26.8532 144.098 26.0529C143.573 24.4076 143.573 22.6417 144.098 20.9964C144.355 20.196 144.744 19.4436 145.25 18.77C145.787 18.0715 146.491 17.5173 147.299 17.1578C148.216 16.7454 149.214 16.54 150.22 16.5567C151.344 16.5567 152.294 16.7662 153.071 17.1853C153.847 17.6044 154.423 18.1239 154.798 18.7438V16.9626H159.01V30.0827H154.798V28.3068ZM149.363 21.3081C148.88 21.9472 148.619 22.7242 148.619 23.5227C148.619 24.3212 148.88 25.0982 149.363 25.7373C149.86 26.3572 150.576 26.6667 151.512 26.6658C152.1 26.6748 152.677 26.5083 153.169 26.1878C153.624 25.904 153.993 25.5023 154.236 25.0262V22.014C153.993 21.5383 153.624 21.1369 153.169 20.8523C152.677 20.5324 152.1 20.3659 151.512 20.3743C150.573 20.3778 149.857 20.689 149.363 21.3081Z" fill="black"/>
<path d="M23.2193 11.2971H23.415C23.415 17.5127 28.6391 22.598 35.024 22.598V22.7879C28.6391 22.7879 23.415 27.8733 23.415 34.0889H23.2193C23.2193 27.8733 17.994 22.7879 11.609 22.7879V22.598C17.994 22.602 23.2193 17.5166 23.2193 11.2971Z" fill="#00CD69"/>
<path d="M35.0239 0C41.4366 0 46.6342 5.06049 46.6342 11.301C46.6342 17.5415 41.4366 22.602 35.0239 22.602V11.297H23.4149C23.4149 5.06049 28.6125 0 35.0239 0Z" fill="#00CD69"/>
<path d="M11.609 0.00170898C18.0217 0.00170898 23.2193 5.06089 23.2193 11.3027H11.609V22.6023C5.19761 22.6023 0 17.5432 0 11.3027C0 5.0622 5.19761 0.00170898 11.609 0.00170898Z" fill="#00CD69"/>
<path d="M35.0239 22.7919C41.4366 22.7919 46.6342 27.8524 46.6342 34.0929C46.6342 40.3334 41.4366 45.3939 35.0239 45.3939C28.6111 45.3939 23.4149 40.3334 23.4149 34.0929H35.0239V22.7919Z" fill="#00CD69"/>
<path d="M23.2193 34.0929C23.2193 40.3334 18.0217 45.3939 11.609 45.3939C5.19629 45.3939 0 40.3334 0 34.0929C0 27.8524 5.19761 22.7919 11.609 22.7919V34.0929H23.2193Z" fill="#00CD69"/>
</svg>
