<svg version="1.0" xmlns="http://www.w3.org/2000/svg"
 width="67.000000pt" height="67.000000pt" viewBox="0 0 67.000000 67.000000"
 preserveAspectRatio="xMidYMid meet">

<g transform="translate(0.000000,67.000000) scale(0.100000,-0.100000)"
fill="#000000" stroke="none">
<path d="M110 620 c0 -64 36 -109 96 -119 l39 -6 3 -138 c2 -132 2 -137 -18
-137 -11 0 -37 -17 -59 -39 -21 -21 -54 -44 -74 -50 -46 -16 -68 -41 -74 -90
l-6 -41 247 0 246 0 0 23 c0 12 -6 33 -13 47 -12 23 -10 29 17 63 20 26 30 50
32 77 1 34 10 50 53 95 57 60 65 94 29 119 -34 24 -45 20 -107 -39 -46 -43
-65 -55 -90 -55 -41 0 -66 -13 -113 -58 l-38 -36 0 67 0 67 30 0 c63 0 110 56
110 130 0 39 -1 40 -35 40 -20 0 -51 -6 -69 -14 l-34 -14 -5 44 c-2 25 -13 54
-23 66 -24 26 -75 48 -114 48 -29 0 -30 -1 -30 -50z m79 9 c31 -11 61 -52 61
-84 0 -10 -10 -15 -34 -15 -41 0 -76 37 -76 81 0 32 4 34 49 18z m201 -139 c0
-29 -26 -76 -45 -84 -9 -3 -28 -6 -41 -6 -37 0 -33 50 7 84 38 32 79 35 79 6z
m230 -103 c0 -15 -61 -77 -76 -77 -28 0 -22 31 12 64 33 32 64 39 64 13z
m-104 -116 c-7 -11 -46 -16 -46 -5 0 3 5 15 11 26 10 18 13 19 26 5 9 -8 12
-20 9 -26z m-73 -10 l-5 -39 42 5 43 6 -7 -29 c-4 -16 -19 -41 -32 -55 -23
-24 -29 -26 -64 -17 -23 6 -42 18 -45 28 -3 10 -19 27 -36 38 l-30 19 45 41
c27 25 55 42 70 42 22 0 24 -3 19 -39z m-114 -97 c17 -14 31 -32 31 -39 0 -7
17 -15 39 -19 40 -6 87 -48 75 -67 -7 -12 -411 -12 -419 1 -13 20 17 51 61 62
27 8 50 21 56 33 30 59 105 73 157 29z"/>
</g>
</svg>
