<svg version="1.0" xmlns="http://www.w3.org/2000/svg"
 width="67.000000pt" height="67.000000pt" viewBox="0 0 67.000000 67.000000"
 preserveAspectRatio="xMidYMid meet">

<g transform="translate(0.000000,67.000000) scale(0.100000,-0.100000)"
fill="#000000" stroke="none">
<path d="M295 653 c-17 -10 -48 -15 -71 -14 -35 2 -45 -2 -67 -28 -14 -17 -32
-31 -41 -31 -8 0 -24 -12 -35 -27 -12 -16 -35 -43 -51 -60 -35 -38 -36 -43
-11 -74 15 -20 19 -49 24 -179 3 -85 9 -163 12 -173 12 -30 61 -47 167 -57
106 -11 223 -6 316 11 78 15 83 28 90 217 4 136 8 160 25 184 19 26 19 28 3
52 -9 15 -21 26 -26 26 -5 0 -15 12 -22 27 -7 15 -26 34 -43 43 -16 8 -32 19
-34 23 -12 28 -49 48 -86 46 -22 -1 -54 5 -72 14 -39 20 -40 20 -78 0z m80
-45 c13 -19 18 -21 35 -10 35 22 69 15 88 -18 11 -19 25 -30 39 -30 12 0 27
-9 33 -20 11 -20 8 -20 -235 -20 -193 0 -246 3 -243 13 3 6 18 16 34 21 17 5
38 22 47 38 18 31 53 37 87 16 17 -11 22 -9 35 10 9 12 27 22 40 22 13 0 31
-10 40 -22z m253 -152 c2 -10 -2 -22 -10 -27 -7 -5 -138 -9 -291 -9 -238 0
-278 2 -283 15 -4 8 -4 22 0 30 5 13 44 15 293 13 273 -3 288 -4 291 -22z
m-31 -217 c-4 -112 -9 -156 -20 -166 -24 -24 -86 -33 -234 -34 -159 -1 -248
13 -258 39 -4 9 -9 83 -12 165 l-6 147 268 0 268 0 -6 -151z"/>
<path d="M300 328 c-46 -31 -60 -61 -60 -129 0 -41 -5 -63 -20 -82 -24 -30 -9
-48 19 -23 12 11 37 16 78 16 108 0 166 62 161 175 l-3 60 -70 3 c-60 2 -76
-1 -105 -20z m148 -40 c6 -50 -17 -108 -51 -128 -32 -20 -97 -27 -97 -12 0 15
34 40 60 44 20 2 25 9 26 33 1 44 -5 49 -31 25 -15 -14 -25 -18 -30 -11 -10
17 -25 3 -25 -23 0 -13 -7 -29 -15 -36 -13 -11 -15 -7 -15 29 0 78 40 112 125
108 46 -2 50 -4 53 -29z"/>
</g>
</svg>
