<svg version="1.0" xmlns="http://www.w3.org/2000/svg"
 width="69.000000pt" height="69.000000pt" viewBox="0 0 69.000000 69.000000"
 preserveAspectRatio="xMidYMid meet">

<g transform="translate(0.000000,69.000000) scale(0.100000,-0.100000)"
fill="#000000" stroke="none">
<path d="M293 680 c-37 -16 -54 -53 -51 -112 3 -45 6 -53 23 -53 17 0 21 8 25
60 l5 60 50 0 50 0 5 -60 c4 -52 8 -60 25 -60 17 0 20 8 23 56 2 48 -1 61 -20
84 -26 30 -94 43 -135 25z"/>
<path d="M282 433 c2 -20 8 -28 23 -28 31 0 28 49 -3 53 -20 3 -23 0 -20 -25z"/>
<path d="M372 443 c-12 -24 -4 -43 18 -43 20 0 36 33 25 50 -10 16 -33 12 -43
-7z"/>
<path d="M34 426 c-26 -21 -29 -31 -29 -81 0 -50 3 -60 28 -81 24 -20 39 -24
98 -24 67 0 70 1 67 23 -3 20 -10 22 -73 27 l-70 5 0 50 0 50 60 5 c52 4 60 8
60 25 0 17 -8 20 -56 23 -48 2 -61 -1 -85 -22z"/>
<path d="M513 434 c-9 -24 7 -33 67 -36 l55 -3 0 -50 0 -50 -75 -5 c-67 -4
-75 -7 -75 -25 0 -18 8 -20 71 -23 64 -3 75 0 100 22 26 21 29 31 29 81 0 50
-3 60 -28 81 -22 19 -39 24 -83 24 -40 0 -56 -4 -61 -16z"/>
<path d="M231 377 c-15 -19 -3 -47 21 -47 15 0 19 6 16 27 -4 31 -20 40 -37
20z"/>
<path d="M432 381 c-20 -12 -10 -46 13 -46 14 0 20 7 20 24 0 27 -13 35 -33
22z"/>
<path d="M305 334 c-30 -32 -43 -83 -24 -95 8 -5 37 -9 65 -9 81 0 93 34 37
100 -30 37 -47 38 -78 4z"/>
<path d="M247 174 c-4 -4 -7 -31 -7 -60 0 -41 5 -59 24 -81 21 -25 31 -28 81
-28 50 0 60 3 81 29 21 24 24 37 22 85 -3 48 -6 56 -23 56 -17 0 -21 -8 -25
-60 l-5 -60 -50 0 -50 0 -5 60 c-4 43 -9 61 -20 63 -9 1 -19 0 -23 -4z"/>
</g>
</svg>
