<svg version="1.0" xmlns="http://www.w3.org/2000/svg"
 width="78.000000pt" height="78.000000pt" viewBox="0 0 78.000000 78.000000"
 preserveAspectRatio="xMidYMid meet">

<g transform="translate(0.000000,78.000000) scale(0.100000,-0.100000)"
fill="#000000" stroke="none">
<path d="M413 769 c-16 -16 -16 -43 -2 -109 19 -90 91 -150 178 -150 35 0 43
-4 56 -31 9 -17 14 -33 12 -36 -3 -2 -23 5 -46 16 -48 25 -82 26 -127 5 -26
-13 -37 -14 -48 -5 -10 8 -15 8 -18 1 -2 -7 -21 -7 -62 1 -96 17 -193 -5 -248
-58 -40 -39 -77 -132 -90 -227 -9 -74 -8 -89 6 -110 20 -31 94 -55 191 -63
161 -13 251 56 292 222 9 39 24 75 32 81 13 10 12 13 -7 25 -12 8 -22 17 -22
21 0 15 40 8 72 -12 118 -72 237 49 158 160 -11 16 -29 32 -40 35 -16 5 -20
16 -21 48 -2 114 -72 185 -192 194 -43 3 -66 1 -74 -8z m151 -33 c42 -18 77
-66 83 -117 l6 -41 -52 55 c-52 54 -105 87 -119 72 -4 -4 -1 -10 6 -12 46 -17
152 -127 152 -158 0 -14 -101 4 -133 22 -42 25 -67 71 -74 138 l-6 55 52 0
c28 0 67 -6 85 -14z m150 -247 c33 -39 35 -88 4 -117 -37 -34 -67 -36 -123 -7
-57 29 -83 31 -111 10 -27 -20 -34 -19 -34 8 0 59 95 85 170 47 41 -21 44 -21
56 -5 9 12 10 25 3 42 -22 58 -5 69 35 22z m-301 -64 c15 -6 17 -15 12 -45 -6
-37 -6 -38 31 -44 l37 -7 -6 -58 c-5 -65 -36 -143 -70 -180 -37 -40 -95 -61
-172 -61 -76 0 -184 23 -198 43 -14 20 1 160 23 218 23 64 71 114 126 135 40
15 179 14 217 -1z"/>
<path d="M206 400 c-44 -14 -84 -58 -107 -119 -23 -62 -38 -191 -22 -191 6 0
13 34 16 75 8 104 42 177 96 204 22 12 54 21 70 21 16 0 33 5 36 10 8 12 -48
12 -89 0z"/>
<path d="M355 101 c-6 -5 -35 -16 -65 -24 -54 -15 -54 -15 -17 -16 44 -1 111
24 102 39 -8 12 -9 12 -20 1z"/>
</g>
</svg>
