<svg width="67" height="67" viewBox="0 0 67 67" fill="none" xmlns="http://www.w3.org/2000/svg">
<g clip-path="url(#clip0_4_94)">
<path d="M24.2963 47.0441C24.2963 42.6545 20.7251 39.0835 16.3356 39.0835C11.946 39.0835 8.375 42.6545 8.375 47.0441C8.375 51.4336 11.946 55.0046 16.3356 55.0046C20.7251 55.0046 24.2963 51.4335 24.2963 47.0441ZM12.3008 47.0441C12.3008 44.8193 14.1108 43.0093 16.3356 43.0093C18.5604 43.0093 20.3705 44.8193 20.3705 47.0441C20.3705 49.2688 18.5604 51.0788 16.3356 51.0788C14.1108 51.0788 12.3008 49.2688 12.3008 47.0441Z" fill="#377BE1"/>
<path d="M61.9838 42.6045V34.8959C61.9838 29.6599 57.724 25.4001 52.488 25.4001H48.0254V21.988L51.3388 19.779L49.1611 16.5126L44.0996 19.887V25.3999H37.896L36.6497 17.317H39.6504V11.4719C39.6504 7.14257 36.1282 3.62036 31.7988 3.62036H11.4719C7.14257 3.62036 3.62036 7.14257 3.62036 11.4719V17.317H6.41211V34.0774C2.51669 37.0658 0 41.7661 0 47.0439C0 56.0514 7.32812 63.3795 16.3356 63.3795C23.5373 63.3795 29.6649 58.6948 31.8326 52.2129H44.2882C44.3904 58.3876 49.4443 63.3795 55.643 63.3795C61.9053 63.3795 67.0001 58.2846 67.0001 52.0224C67 48.1065 65.0078 44.6471 61.9838 42.6045ZM55.6428 59.4537C51.5452 59.4537 48.2115 56.12 48.2115 52.0224C48.2115 47.9248 51.5452 44.591 55.6428 44.591C59.7404 44.591 63.0742 47.9248 63.0742 52.0224C63.0742 56.1201 59.7404 59.4537 55.6428 59.4537ZM3.92578 47.0439C3.92578 40.2011 9.4928 34.6342 16.3356 34.6342C23.1783 34.6342 28.7455 40.2012 28.7455 47.0439C28.7455 53.8867 23.1785 59.4537 16.3356 59.4537C9.4928 59.4537 3.92578 53.8868 3.92578 47.0439ZM7.54627 11.4719C7.54627 9.30725 9.30737 7.54614 11.472 7.54614H31.7988C33.9635 7.54614 35.7246 9.30725 35.7246 11.4719V13.3912H7.54627V11.4719ZM34.3287 28.0263V35.7246H28.1022C26.2781 33.8292 24.002 32.3724 21.4489 31.5289V17.317H32.6774L34.3287 28.0263ZM17.5231 17.317V30.7517C17.1308 30.7234 16.735 30.7083 16.3356 30.7083C14.2192 30.7083 12.1956 31.113 10.3379 31.8488V17.317H17.5231ZM30.8998 39.6504H38.2545V29.3259H44.0996V48.2871H32.6243C32.6553 47.8767 32.6713 47.4622 32.6713 47.0439C32.6713 44.3845 32.032 41.8717 30.8998 39.6504V39.6504ZM58.058 40.9246C57.2794 40.7552 56.4714 40.6652 55.6428 40.6652C52.7145 40.6652 50.0415 41.7793 48.0254 43.6059V29.3259H52.488C55.5592 29.3259 58.058 31.8246 58.058 34.8959V40.9246Z" fill="#377BE1"/>
<path d="M53.6799 50.0594H57.6057V53.9852H53.6799V50.0594Z" fill="#377BE1"/>
</g>
<defs>
<clipPath id="clip0_4_94">
<rect width="67" height="67" fill="white"/>
</clipPath>
</defs>
</svg>
