<svg width="67" height="61" viewBox="0 0 67 61" fill="none" xmlns="http://www.w3.org/2000/svg">
<path d="M24.2963 44.0441C24.2963 39.6545 20.7251 36.0835 16.3356 36.0835C11.946 36.0835 8.375 39.6545 8.375 44.0441C8.375 48.4336 11.946 52.0046 16.3356 52.0046C20.7251 52.0046 24.2963 48.4335 24.2963 44.0441ZM12.3008 44.0441C12.3008 41.8193 14.1108 40.0093 16.3356 40.0093C18.5604 40.0093 20.3705 41.8193 20.3705 44.0441C20.3705 46.2688 18.5604 48.0788 16.3356 48.0788C14.1108 48.0788 12.3008 46.2688 12.3008 44.0441Z" fill="#377BE1"/>
<path d="M61.9838 39.6045V31.8959C61.9838 26.6599 57.724 22.4001 52.488 22.4001H48.0254V18.988L51.3388 16.779L49.1611 13.5126L44.0996 16.887V22.3999H37.896L36.6497 14.317H39.6504V8.47192C39.6504 4.14257 36.1282 0.620361 31.7988 0.620361H11.4719C7.14257 0.620361 3.62036 4.14257 3.62036 8.47192V14.317H6.41211V31.0774C2.51669 34.0658 0 38.7661 0 44.0439C0 53.0514 7.32812 60.3795 16.3356 60.3795C23.5373 60.3795 29.6649 55.6948 31.8326 49.2129H44.2882C44.3904 55.3876 49.4443 60.3795 55.643 60.3795C61.9053 60.3795 67.0001 55.2846 67.0001 49.0224C67 45.1065 65.0078 41.6471 61.9838 39.6045ZM55.6428 56.4537C51.5452 56.4537 48.2115 53.12 48.2115 49.0224C48.2115 44.9248 51.5452 41.591 55.6428 41.591C59.7404 41.591 63.0742 44.9248 63.0742 49.0224C63.0742 53.1201 59.7404 56.4537 55.6428 56.4537ZM3.92578 44.0439C3.92578 37.201 9.4928 31.6342 16.3356 31.6342C23.1783 31.6342 28.7455 37.2012 28.7455 44.0439C28.7455 50.8867 23.1785 56.4537 16.3356 56.4537C9.4928 56.4537 3.92578 50.8868 3.92578 44.0439ZM7.54627 8.47192C7.54627 6.30725 9.30737 4.54614 11.472 4.54614H31.7988C33.9635 4.54614 35.7246 6.30725 35.7246 8.47192V10.3912H7.54627V8.47192ZM34.3287 25.0263V32.7246H28.1022C26.2781 30.8292 24.002 29.3724 21.4489 28.5289V14.317H32.6774L34.3287 25.0263ZM17.5231 14.317V27.7517C17.1308 27.7234 16.735 27.7083 16.3356 27.7083C14.2192 27.7083 12.1956 28.113 10.3379 28.8488V14.317H17.5231ZM30.8998 36.6504H38.2545V26.3259H44.0996V45.2871H32.6243C32.6553 44.8767 32.6713 44.4622 32.6713 44.0439C32.6713 41.3845 32.032 38.8717 30.8998 36.6504ZM58.058 37.9246C57.2794 37.7552 56.4714 37.6652 55.6428 37.6652C52.7145 37.6652 50.0415 38.7793 48.0254 40.6059V26.3259H52.488C55.5592 26.3259 58.058 28.8246 58.058 31.8959V37.9246Z" fill="#377BE1"/>
<path d="M53.6799 47.0594H57.6057V50.9852H53.6799V47.0594Z" fill="#377BE1"/>
</svg>
