<svg width="58" height="58" viewBox="0 0 58 58" fill="none" xmlns="http://www.w3.org/2000/svg">
<g clip-path="url(#clip0_22_193)">
<path d="M57.5549 53.535L50.2805 46.2607C49.4265 45.4062 48.3711 44.8717 47.2657 44.6571V29.984C47.5034 30.0039 47.7401 30.0137 47.9764 30.0137C50.2221 30.0137 52.3895 29.1322 54.0197 27.502C56.1105 25.4112 56.9694 22.438 56.3176 19.548C56.2216 19.1214 55.8884 18.7886 55.4618 18.6922C52.5723 18.0408 49.5986 18.8997 47.5082 20.9906C47.425 21.0733 47.345 21.1583 47.2657 21.2437V15.315C49.0052 13.9844 50.0265 11.9378 50.0265 9.72172C50.0265 7.29059 48.7973 5.06214 46.7383 3.76117C46.3683 3.52753 45.8975 3.52753 45.5276 3.76117C43.4686 5.06214 42.2393 7.29059 42.2393 9.72172C42.2393 11.9378 43.2606 13.9844 45.0001 15.315V16.8018C43.1372 14.957 40.499 14.2008 37.9346 14.7791C37.5081 14.8756 37.1749 15.2088 37.0788 15.6349C36.4978 18.2121 37.2638 20.8636 39.1281 22.7283C40.5821 24.1823 42.515 24.9682 44.5178 24.9682C44.6784 24.9682 44.8391 24.9616 45.0001 24.9519V29.5017C44.8528 29.3313 44.6992 29.165 44.5381 29.0039C42.288 26.7542 39.0975 25.817 35.9858 26.4856C35.7341 24.7284 34.2198 23.3734 32.3949 23.3734H25.1153L21.7235 18.7117C21.2438 18.0519 20.6464 17.4996 19.9734 17.0708C21.95 16.2451 23.343 14.2924 23.343 12.0201V9.31196H25.0896C25.7153 9.31196 26.2224 8.80484 26.2224 8.17914C26.2224 7.55344 25.7153 7.04633 25.0896 7.04633H23.6546V5.23162C23.6546 3.44965 22.2049 2 20.4229 2H15.0673C13.2853 2 11.8357 3.44965 11.8357 5.23162V7.04633H10.4006C9.77494 7.04633 9.26783 7.55344 9.26783 8.17914C9.26783 8.80484 9.77494 9.31196 10.4006 9.31196H12.4008V12.0201C12.4008 13.7839 13.2406 15.3548 14.5407 16.3562C11.933 17.1877 10.0387 19.6325 10.0387 22.5123V34.8467C10.0387 37.4978 11.487 39.8156 13.6331 41.0542V48.3321H3.45508C1.4877 48.3321 -0.113281 49.933 -0.113281 51.9004C-0.113281 53.8678 1.4877 55.4688 3.45508 55.4688H4.91358C5.53928 55.4688 6.04639 54.9617 6.04639 54.336C6.04639 53.7103 5.53928 53.2032 4.91358 53.2032H3.45508C2.73689 53.2032 2.15235 52.6186 2.15235 51.9004C2.15235 51.1822 2.73689 50.5977 3.45508 50.5977H14.766C15.3917 50.5977 15.8988 50.0906 15.8988 49.4649V41.8896C16.3218 41.968 16.7572 42.0109 17.2028 42.0109H19.4468V49.3379C19.4468 51.4694 17.7126 53.2032 15.5815 53.2032H13.9761C13.3504 53.2032 12.8433 53.7103 12.8433 54.336C12.8433 54.9617 13.3504 55.4688 13.9761 55.4688H15.5815C18.9622 55.4688 21.7124 52.7186 21.7124 49.3379V42.0109H25.8556V51.9004C25.8556 53.8678 27.4566 55.4688 29.4239 55.4688C31.3918 55.4688 32.9923 53.8678 32.9923 51.9004V39.6094C32.9923 36.2287 30.2426 33.4785 26.8618 33.4785H21.4049V30.5765C21.5155 30.6119 21.6319 30.631 21.7509 30.631H32.3949C33.3198 30.631 34.1645 30.2827 34.8061 29.711C34.8747 32.055 35.8265 34.3024 37.5328 36.0092C39.3055 37.7819 41.6619 38.7399 44.1032 38.7399C44.4014 38.7399 44.7005 38.7248 45.0001 38.6961V44.661C43.9009 44.8779 42.8526 45.4106 42.003 46.2607L34.7623 53.5014C34.3198 53.9435 34.3198 54.6608 34.7623 55.1033C35.2044 55.5458 35.9221 55.5458 36.3642 55.1033L43.6049 47.863C45.0037 46.4638 47.2795 46.4638 48.6787 47.863L55.953 55.1369C56.1743 55.3582 56.4641 55.4688 56.7539 55.4688C57.0438 55.4688 57.3336 55.3582 57.5549 55.1369C57.9974 54.6944 57.9974 53.9771 57.5549 53.535ZM44.982 22.6823C43.412 22.8154 41.8641 22.2597 40.7304 21.1264C39.5971 19.9927 39.0405 18.4453 39.1745 16.8748C40.7445 16.7412 42.2924 17.2974 43.4261 18.4307C44.5594 19.5644 45.1156 21.1122 44.982 22.6823ZM49.1101 22.5924C50.4717 21.2313 52.3417 20.5795 54.2295 20.7808C54.4303 22.6676 53.779 24.5386 52.4178 25.8997C51.0562 27.2613 49.1862 27.9127 47.2985 27.7113C47.2781 27.5193 47.2688 27.3277 47.2657 27.1365V26.9161C47.2972 25.3072 47.9406 23.762 49.1101 22.5924ZM46.1329 6.12769C47.1635 7.02907 47.7609 8.3265 47.7609 9.72216C47.7609 11.1174 47.1635 12.4148 46.1329 13.3162C45.1023 12.4148 44.505 11.1178 44.505 9.72216C44.505 8.3265 45.1023 7.02907 46.1329 6.12769ZM21.0774 12.0201C21.0774 13.7875 19.6393 15.2256 17.8719 15.2256C16.1041 15.2256 14.6664 13.7875 14.6664 12.0201V9.31196H21.0774V12.0201ZM14.1013 5.23162C14.1013 4.69884 14.5345 4.26563 15.0673 4.26563H20.4229C20.9557 4.26563 21.3889 4.69884 21.3889 5.23162V7.04633H14.1013V5.23162ZM26.8618 35.7441C28.9929 35.7441 30.7267 37.4783 30.7267 39.6094V51.9004C30.7267 52.6186 30.1426 53.2032 29.4239 53.2032C28.7058 53.2032 28.1212 52.6186 28.1212 51.9004V40.8781C28.1212 40.2528 27.6141 39.7453 26.9884 39.7453H17.2024C14.8084 39.7453 12.811 38.0182 12.3879 35.7441H26.8618ZM32.3949 28.3653H22.2589L20.0583 25.8913C19.6424 25.4236 18.9264 25.382 18.4587 25.7975C17.9914 26.2134 17.9493 26.9294 18.3653 27.3971L19.1392 28.2667V33.4785H12.3043V22.5123C12.3043 20.1994 14.1863 18.3174 16.4992 18.3174C17.8365 18.3174 19.1047 18.963 19.8915 20.0445L23.6227 25.1727C23.836 25.4661 24.1763 25.6391 24.5387 25.6391H32.3949C33.1467 25.6391 33.7583 26.2506 33.7583 27.0024C33.7583 27.7538 33.1463 28.3653 32.3949 28.3653ZM44.9523 36.4234C42.8106 36.6787 40.6799 35.9521 39.1352 34.4073C37.5904 32.8625 36.8629 30.7314 37.1187 28.5897C39.2599 28.333 41.3915 29.0614 42.9363 30.6062C44.2642 31.9341 44.986 33.6958 45.0001 35.5246V35.6848C44.9966 35.9304 44.9815 36.1769 44.9523 36.4234Z" fill="#377BE1"/>
<path d="M9.44443 53.4688C9.14618 53.4688 8.85545 53.59 8.64349 53.8006C8.43286 54.0113 8.3125 54.3038 8.3125 54.6016C8.3125 54.8994 8.43286 55.1919 8.64349 55.4025C8.85545 55.6131 9.14618 55.7344 9.44443 55.7344C9.74223 55.7344 10.0343 55.6131 10.2462 55.4025C10.4569 55.1919 10.5781 54.8994 10.5781 54.6016C10.5781 54.3038 10.4569 54.0113 10.2462 53.8006C10.0343 53.59 9.74223 53.4688 9.44443 53.4688Z" fill="#377BE1"/>
</g>
<defs>
<clipPath id="clip0_22_193">
<rect width="58" height="58" fill="white"/>
</clipPath>
</defs>
</svg>
