<svg width="58" height="58" viewBox="0 0 58 58" fill="none" xmlns="http://www.w3.org/2000/svg">
<g clip-path="url(#clip0_22_174)">
<path d="M41.1937 29.7098C41.0937 29.3682 40.8369 29.0892 40.4956 28.9643C40.4267 28.9392 39.8683 28.7416 39.0011 28.6147C42.7063 24.6722 41.4829 20.0661 41.1937 19.1665C41.0937 18.8247 40.8369 18.5457 40.4956 18.4209C40.3365 18.3627 37.5633 17.3848 34.4037 18.4844C34.5821 17.7525 34.6864 16.9479 34.6864 16.065C34.6864 10.416 30.4086 7.93309 29.5501 7.49231C29.2378 7.32126 28.8586 7.30563 28.5292 7.45878C28.3168 7.55745 23.3263 9.94576 23.3263 16.065C23.3263 16.9497 23.4311 17.756 23.6102 18.4891C20.445 17.3821 17.6643 18.3626 17.505 18.4209C17.1637 18.5457 16.9069 18.8247 16.8069 19.1665C16.5177 20.0661 15.2944 24.6722 18.9996 28.6147C18.1323 28.7416 17.5739 28.9392 17.505 28.9643C17.1637 29.0892 16.9068 29.3683 16.8068 29.7099C16.5116 30.6283 15.2421 35.4092 19.2367 39.4038C21.5483 41.7154 24.1139 42.2668 26.036 42.2668C26.7477 42.2668 27.3697 42.191 27.8594 42.1011V49.5134C27.8594 50.139 28.3666 50.6462 28.9922 50.6462C29.6179 50.6462 30.125 50.139 30.125 49.5134V42.0983C30.617 42.1893 31.2451 42.2667 31.9645 42.2667C33.8865 42.2667 36.4525 41.715 38.7638 39.4036C42.7584 35.409 41.4889 30.6282 41.1937 29.7098ZM27.8594 38.5698C27.8342 39.084 27.7621 39.5161 27.6931 39.8269C26.4822 40.0959 23.4526 40.4156 20.8388 37.8016C18.2643 35.2273 18.5341 32.2479 18.8191 30.9479C19.5805 30.7824 21.0661 30.598 22.711 31.1317C22.8193 31.1723 22.9272 31.2106 23.0346 31.2463C23.9058 31.5766 24.8102 32.1158 25.6674 32.9729C27.3008 34.6063 27.7886 36.4018 27.8594 37.814V38.5698ZM27.8594 28.0266C27.8342 28.5408 27.7621 28.9729 27.6931 29.2836C26.9428 29.4504 25.4944 29.6356 23.8794 29.1315C23.7157 29.0684 23.5529 29.011 23.3912 28.959C22.5464 28.6253 21.6715 28.091 20.8387 27.2583C18.2643 24.6839 18.5341 21.7046 18.8191 20.4047C20.0288 20.1416 23.0669 19.8292 25.6674 22.4297C25.6839 22.4462 25.6989 22.4629 25.7151 22.4793C25.8144 22.5908 25.9141 22.6974 26.0137 22.7998C27.3696 24.3303 27.7939 25.9645 27.8594 27.2708V28.0266ZM29.0082 22.3428C28.6532 22.1151 28.1416 21.7398 27.622 21.1973C27.5689 21.1392 27.5154 21.0811 27.4603 21.0232C26.5138 19.9718 25.5918 18.359 25.5918 16.065C25.5918 12.3724 27.9549 10.4564 29.0006 9.78943C30.1205 10.506 32.4207 12.422 32.4207 16.065C32.4207 18.2298 31.6083 19.7831 30.7256 20.833C30.5421 21.0167 30.3704 21.2023 30.2085 21.3888C29.7556 21.8291 29.3219 22.143 29.0082 22.3428ZM30.132 27.6594C30.1305 26.3295 30.4745 24.5696 31.883 22.9168C32.0499 22.751 32.2177 22.5725 32.384 22.3808C34.9834 19.8239 37.9777 20.1362 39.1809 20.4024C39.4661 21.7012 39.7377 24.6824 37.1617 27.2583C36.3305 28.0897 35.4573 28.6235 34.6139 28.9574C34.4495 29.0102 34.284 29.0685 34.1175 29.1328C32.5027 29.6361 31.0552 29.4502 30.3079 29.2839C30.224 28.9063 30.1352 28.3518 30.1319 27.6883C30.1319 27.6787 30.132 27.6691 30.132 27.6594ZM37.1617 37.8016C34.5474 40.416 31.5177 40.0958 30.3097 39.8278C30.0463 38.6227 29.7279 35.5781 32.3331 32.9729C33.1666 32.1394 34.0422 31.605 34.8877 31.2713C35.049 31.2194 35.2113 31.1623 35.3746 31.0993C36.9861 30.5964 38.4313 30.7799 39.1809 30.9456C39.4661 32.2445 39.7377 35.2257 37.1617 37.8016Z" fill="#377BE1"/>
<path d="M35.0442 0.63109C33.0696 0.212402 31.036 0 29 0C21.2538 0 13.9713 3.01645 8.49394 8.49394C3.01657 13.9713 0 21.2538 0 29C0 35.4545 2.1716 41.7551 6.12806 46.8283C5.68298 47.5168 5.44339 48.3189 5.44339 49.1583C5.44339 50.3081 5.89119 51.389 6.70421 52.2022C7.51723 53.0152 8.59827 53.463 9.74808 53.463C10.8979 53.463 11.9789 53.0152 12.7919 52.2022C13.6051 51.389 14.0528 50.3081 14.0528 49.1583C14.0528 48.0085 13.605 46.9276 12.7919 46.1144C11.9789 45.3013 10.8979 44.8535 9.74808 44.8535C9.06658 44.8535 8.40966 45.012 7.81799 45.3094C4.23241 40.6549 2.26562 34.8975 2.26562 29C2.26562 14.2586 14.2586 2.26562 29 2.26562C30.8784 2.26562 32.7538 2.46137 34.5742 2.84744C35.1866 2.97714 35.7876 2.58621 35.9174 1.97427C36.0472 1.36221 35.6563 0.76091 35.0442 0.63109ZM8.30623 47.7163C8.70374 47.3187 9.22585 47.12 9.74808 47.12C10.2703 47.12 10.7924 47.3188 11.1899 47.7163C11.5751 48.1014 11.7871 48.6135 11.7871 49.1582C11.7871 49.7028 11.5751 50.2149 11.1899 50.6C10.3949 51.3952 9.10124 51.395 8.30623 50.6C7.92108 50.215 7.70902 49.7028 7.70902 49.1582C7.70902 48.6135 7.92108 48.1015 8.30623 47.7163Z" fill="#377BE1"/>
<path d="M51.8719 11.1718C52.317 10.4832 52.5566 9.68121 52.5566 8.8418C52.5566 7.69199 52.1088 6.61095 51.2958 5.79793C50.4828 4.9848 49.4017 4.53711 48.2519 4.53711C47.1021 4.53711 46.0211 4.98491 45.208 5.79793C44.395 6.61095 43.9472 7.69199 43.9472 8.8418C43.9472 9.9916 44.395 11.0726 45.208 11.8857C46.0211 12.6988 47.1021 13.1465 48.2519 13.1465C48.9335 13.1465 49.5903 12.988 50.1821 12.6905C53.7676 17.3451 55.7344 23.1026 55.7344 29.0001C55.7344 43.7415 43.7414 55.7345 29 55.7345C27.4142 55.7345 25.8253 55.5947 24.2775 55.3188C23.6619 55.2093 23.0732 55.6193 22.9636 56.2354C22.8538 56.8513 23.2641 57.4396 23.88 57.5494C25.5587 57.8484 27.2813 58.0001 29 58.0001C36.7462 58.0001 44.0287 54.9835 49.5062 49.5063C54.9836 44.029 58 36.7463 58 29.0001C58 22.5456 55.8284 16.245 51.8719 11.1718ZM49.6939 10.2836C49.3088 10.6688 48.7967 10.8809 48.252 10.8809C47.7074 10.8809 47.1952 10.6689 46.8102 10.2836C46.0151 9.48864 46.0151 8.19508 46.8102 7.39995C47.1952 7.0148 47.7074 6.80274 48.252 6.80274C48.7967 6.80274 49.3087 7.0148 49.6939 7.39995C50.079 7.785 50.2911 8.29714 50.2911 8.8418C50.2911 9.38646 50.079 9.89849 49.6939 10.2836Z" fill="#377BE1"/>
<path d="M19.0462 53.8201L18.6185 54.8691L19.043 53.8189C18.4627 53.5846 17.8027 53.8645 17.5682 54.4445C17.3337 55.0245 17.6139 55.6848 18.1939 55.9194L18.2289 55.9333C18.3624 55.9844 18.5 56.0086 18.6352 56.0086C19.0915 56.0086 19.5228 55.7324 19.6954 55.2819C19.9193 54.6975 19.6305 54.0438 19.0462 53.8201Z" fill="#377BE1"/>
<path d="M39.8553 2.10064L39.8351 2.0926C39.2544 1.86014 38.5951 2.14278 38.3626 2.72368C38.1302 3.30459 38.4128 3.96366 38.9937 4.19611L39.0066 4.20133C39.1457 4.25751 39.2893 4.28402 39.4306 4.28402C39.8788 4.28402 40.3031 4.01634 40.4813 3.57533C40.7157 2.99522 40.4354 2.33502 39.8553 2.10064Z" fill="#377BE1"/>
</g>
<defs>
<clipPath id="clip0_22_174">
<rect width="58" height="58" fill="white"/>
</clipPath>
</defs>
</svg>
