<svg width="38" height="31" viewBox="0 0 38 31" fill="none" xmlns="http://www.w3.org/2000/svg">
<path d="M37.9573 27.4079L37.7267 26.5555L37.424 25.4365C38.1611 20.2629 38.1611 15.0185 37.424 9.84494L37.9572 7.87356C38.072 7.4494 37.9533 7.01076 37.6399 6.70028C37.3264 6.3897 36.8836 6.27228 36.4554 6.38586L34.4886 6.9079C31.1953 6.16068 27.8591 6.16068 24.5658 6.9079L22.599 6.38586C22.1708 6.27223 21.728 6.38975 21.4144 6.70023C21.101 7.01076 20.9824 7.44935 21.0971 7.87347L21.6304 9.8449C20.8933 15.0185 20.8933 20.2629 21.6304 25.4365L21.0971 27.4078C20.9824 27.832 21.101 28.2706 21.4144 28.5811C21.7279 28.8916 22.1707 29.0091 22.5989 28.8955L24.5657 28.3734C27.8591 29.1207 31.1952 29.1207 34.4886 28.3734L36.4554 28.8955C36.5629 28.924 36.6713 28.938 36.7783 28.938C37.0977 28.938 37.405 28.8137 37.6399 28.5811C37.9533 28.2706 38.072 27.832 37.9573 27.4079ZM36.0977 25.6484L36.4358 26.8981L36.6169 27.5679L34.6729 27.0519C34.566 27.0235 34.4537 27.0218 34.3459 27.0472C31.1485 27.7972 27.9059 27.7972 24.7084 27.0472C24.6577 27.0353 24.606 27.0293 24.5544 27.0293C24.4962 27.0293 24.4381 27.0368 24.3814 27.0519L22.4374 27.5679L22.9566 25.6484C22.9799 25.562 22.9853 25.4717 22.9725 25.383C22.2277 20.2456 22.2277 15.0358 22.9725 9.89838C22.9853 9.80977 22.9799 9.71944 22.9566 9.63295L22.4374 7.71355L24.3815 8.22954C24.4883 8.25791 24.6006 8.25955 24.7084 8.23426C27.9059 7.48422 31.1485 7.48422 34.346 8.23426C34.4537 8.25955 34.566 8.25791 34.6729 8.22954L36.617 7.71355L36.0978 9.63299C36.0744 9.71949 36.069 9.80977 36.0818 9.89843C36.8267 15.0358 36.8267 20.2457 36.0818 25.3831C36.0689 25.4716 36.0743 25.562 36.0977 25.6484Z" fill="#377BE1"/>
<path d="M16.9031 27.4079L16.6725 26.5555L16.3698 25.4365C17.1069 20.2629 17.1069 15.0185 16.3698 9.84494L16.903 7.87356C17.0178 7.4494 16.8991 7.01076 16.5857 6.70028C16.2722 6.3897 15.8294 6.27228 15.4012 6.38586L13.4344 6.9079C10.1411 6.16068 6.80493 6.16068 3.51158 6.9079L1.54478 6.38586C1.11663 6.27223 0.673775 6.38975 0.360245 6.70023C0.0468048 7.01076 -0.0718269 7.44935 0.0428845 7.87347L0.57617 9.8449C-0.160923 15.0185 -0.160923 20.2629 0.57617 25.4365L0.042929 27.4078C-0.071827 27.832 0.0468048 28.2706 0.360245 28.5811C0.673731 28.8916 1.11649 29.0091 1.54474 28.8955L3.51154 28.3734C6.80489 29.1207 10.141 29.1207 13.4344 28.3734L15.4012 28.8955C15.5087 28.924 15.6171 28.938 15.7241 28.938C16.0435 28.938 16.3508 28.8137 16.5857 28.5811C16.8991 28.2706 17.0178 27.832 16.9031 27.4079ZM15.0435 25.6484L15.3816 26.8981L15.5627 27.5679L13.6187 27.0519C13.5118 27.0235 13.3995 27.0218 13.2917 27.0472C10.0943 27.7972 6.85167 27.7972 3.65418 27.0472C3.60348 27.0353 3.55181 27.0293 3.50018 27.0293C3.442 27.0293 3.38386 27.0368 3.32724 27.0519L1.38316 27.5679L1.90237 25.6484C1.92571 25.562 1.93115 25.4717 1.91832 25.383C1.17347 20.2456 1.17347 15.0358 1.91832 9.89838C1.93115 9.80977 1.92571 9.71944 1.90237 9.63295L1.3832 7.71355L3.32729 8.22954C3.43407 8.25791 3.54642 8.25955 3.65422 8.23426C6.85167 7.48422 10.0943 7.48422 13.2918 8.23426C13.3995 8.25955 13.5118 8.25791 13.6187 8.22954L15.5628 7.71355L15.0436 9.63299C15.0202 9.71949 15.0148 9.80977 15.0276 9.89843C15.7725 15.0358 15.7725 20.2457 15.0276 25.3831C15.0147 25.4716 15.0201 25.562 15.0435 25.6484Z" fill="#377BE1"/>
<path d="M28.2428 2.49194H9.75635V28.6811H28.4996L28.2428 2.49194Z" fill="white"/>
<path d="M30.0073 28.4616L29.7062 27.3379L29.3109 25.8629C30.2734 19.0432 30.2734 12.1302 29.3109 5.3105L30.0072 2.71187C30.157 2.15275 30.0021 1.57455 29.5929 1.16527C29.1835 0.755881 28.6053 0.601094 28.0462 0.750821L25.4781 1.43896C21.1777 0.453985 16.8216 0.453985 12.5213 1.43896L9.95314 0.750821C9.39408 0.601036 8.81582 0.75594 8.40643 1.16522C7.99715 1.57455 7.84225 2.15269 7.99203 2.71175L8.68837 5.31044C7.72591 12.1302 7.72591 19.0432 8.68837 25.8629L7.99209 28.4615C7.84225 29.0206 7.99715 29.5988 8.40643 30.0081C8.81576 30.4175 9.3939 30.5723 9.95308 30.4225L12.5212 29.7344C16.8215 30.7193 21.1777 30.7193 25.478 29.7344L28.0461 30.4225C28.1865 30.4601 28.3281 30.4785 28.4679 30.4785C28.8849 30.4785 29.2862 30.3147 29.5928 30.0081C30.0021 29.5988 30.157 29.0206 30.0073 28.4616ZM27.5792 26.1423L28.0206 27.7896L28.2571 28.6725L25.7186 27.9923C25.5791 27.9549 25.4324 27.9527 25.2917 27.9861C21.1167 28.9748 16.8826 28.9748 12.7075 27.9861C12.6413 27.9704 12.5738 27.9626 12.5064 27.9626C12.4304 27.9626 12.3545 27.9725 12.2806 27.9923L9.7421 28.6725L10.4201 26.1423C10.4505 26.0283 10.4576 25.9093 10.4409 25.7924C9.4683 19.0204 9.4683 12.153 10.4409 5.38094C10.4576 5.26414 10.4505 5.14507 10.4201 5.03106L9.74216 2.50095L12.2806 3.18111C12.4201 3.21852 12.5668 3.22067 12.7075 3.18734C16.8826 2.19864 21.1167 2.19864 25.2918 3.18734C25.4325 3.22067 25.5791 3.21852 25.7187 3.18111L28.2572 2.50095L27.5792 5.03112C27.5487 5.14513 27.5416 5.26414 27.5584 5.381C28.531 12.153 28.531 19.0205 27.5584 25.7925C27.5415 25.9093 27.5486 26.0283 27.5792 26.1423Z" fill="#377BE1"/>
<path d="M24.4831 9.93225H22.3342C20.9775 9.93225 19.7695 10.5784 18.9996 11.5785C18.2297 10.5784 17.0217 9.93225 15.665 9.93225H13.5161C13.0342 9.93225 12.6436 10.3229 12.6436 10.8048V12.3865C12.6436 14.7063 14.5309 16.5937 16.8507 16.5937H18.1271V20.3684C18.1271 20.8502 18.5177 21.2409 18.9996 21.2409C19.4815 21.2409 19.8721 20.8502 19.8721 20.3684V16.5937H21.1485C23.4683 16.5937 25.3557 14.7063 25.3557 12.3865V10.8048C25.3557 10.3229 24.965 9.93225 24.4831 9.93225ZM14.3886 12.3865V11.6773H15.6649C17.0225 11.6773 18.127 12.7818 18.127 14.1394V14.8486H16.8507C15.4931 14.8486 14.3886 13.7442 14.3886 12.3865ZM23.6106 12.3865C23.6106 13.7441 22.5061 14.8486 21.1485 14.8486H19.8721V14.1394C19.8721 12.7818 20.9766 11.6773 22.3342 11.6773H23.6106V12.3865Z" fill="#377BE1"/>
</svg>
