<svg width="37" height="36" viewBox="0 0 37 36" fill="none" xmlns="http://www.w3.org/2000/svg">
<path d="M7.74023 20.2776H28.2989V32.2847C28.2989 33.3832 27.4083 34.2737 26.3098 34.2737H9.72924C8.63074 34.2737 7.74023 33.3832 7.74023 32.2847V20.2776Z" stroke="#377BE1" stroke-width="2"/>
<path d="M9.20312 12.9199L4.83132 10.3571C4.0168 9.87967 2.96911 10.2677 2.66218 11.1606L1.4306 14.7434C1.18484 15.4583 1.51167 16.2442 2.19192 16.574L7.76757 19.2774L9.20312 12.9199ZM9.20312 12.9199H12.8945" stroke="#377BE1" stroke-width="2" stroke-linecap="round" stroke-linejoin="round"/>
<path d="M27.2495 12.9199L31.6213 10.3571C32.4358 9.87967 33.4835 10.2677 33.7905 11.1606L35.022 14.7434C35.2678 15.4583 34.941 16.2442 34.2607 16.574L28.6851 19.2774L27.2495 12.9199ZM27.2495 12.9199H23.5581" stroke="#377BE1" stroke-width="2" stroke-linecap="round" stroke-linejoin="round"/>
<path d="M20.8916 5.97279H19.8916V6.97279V13.3443C19.8916 14.0301 19.3357 14.5861 18.6499 14.5861H17.8013C17.1155 14.5861 16.5596 14.0301 16.5596 13.3443V6.97279V5.97279H15.5596H15.385C14.9592 5.97279 14.7325 5.47041 15.0142 5.15111L17.8548 1.9318C18.0517 1.70869 18.3995 1.70869 18.5964 1.9318L21.437 5.15111C21.7187 5.47041 21.492 5.97279 21.0662 5.97279H20.8916Z" stroke="#377BE1" stroke-width="2"/>
</svg>
