<svg width="29" height="39" viewBox="0 0 29 39" fill="none" xmlns="http://www.w3.org/2000/svg">
<path d="M8.44948 37.454V17.6093H3.15657C1.84073 17.6093 1.07908 16.118 1.85046 15.052L8.82373 5.41506C10.7545 2.74672 14.7296 2.74672 16.6604 5.41507L23.6337 15.052C24.4051 16.118 23.6434 17.6093 22.3276 17.6093H17.0347V22.9743" stroke="#377BE1" stroke-width="2" stroke-linecap="round" stroke-linejoin="round"/>
<path d="M16.3003 33.3004C18.4575 33.3004 19.4433 32.3146 19.4433 30.1716C19.4433 28.0144 18.4575 27.0286 16.3003 27.0286C14.143 27.0286 13.1572 28.0144 13.1572 30.1716C13.1572 32.3146 14.1287 33.3004 16.3003 33.3004ZM17.8011 36.5079C17.6259 36.8864 17.7436 37.3528 18.1482 37.4539C18.7268 37.5986 18.981 37.3602 19.072 37.2316C19.1049 37.1851 19.1266 37.1319 19.1504 37.0801L23.3623 27.9215C23.5643 27.4824 23.4333 26.9883 22.9747 26.8355C22.5149 26.6823 22.1438 27.2 22.0391 27.3655C22.0186 27.3979 22.0014 27.4321 21.9853 27.4669L17.8011 36.5079ZM16.3003 31.9146C15.3288 31.9146 15.0288 31.4717 15.0288 30.1716C15.0288 28.8715 15.3288 28.4144 16.3003 28.4144C17.2575 28.4144 17.5718 28.8715 17.5718 30.1716C17.5718 31.4574 17.2575 31.9146 16.3003 31.9146ZM24.9151 37.3149C27.0723 37.3149 28.0581 36.3148 28.0581 34.1719C28.0581 32.0146 27.0723 31.0431 24.9151 31.0431C22.7578 31.0431 21.772 32.0146 21.772 34.1719C21.772 36.3148 22.7435 37.3149 24.9151 37.3149ZM24.9151 35.9148C23.9436 35.9148 23.6436 35.4719 23.6436 34.1719C23.6436 32.8718 23.9436 32.4146 24.9151 32.4146C25.8723 32.4146 26.1866 32.8718 26.1866 34.1719C26.1866 35.4577 25.8723 35.9148 24.9151 35.9148Z" fill="#377BE1"/>
</svg>
