<svg width="53" height="53" viewBox="0 0 53 53" fill="none" xmlns="http://www.w3.org/2000/svg">
<g clip-path="url(#clip0_22_222)">
<path d="M52.7841 22.6036L43.9133 11.0802C43.585 10.654 42.9861 10.5489 42.532 10.8376L36.8047 14.48H29.335C29.2384 14.48 29.1421 14.5007 29.0491 14.5278L23.2575 16.1949L17.2479 14.5512L11.4086 10.8376C10.9622 10.5537 10.3743 10.65 10.0423 11.0616L0.230544 23.215C-0.122056 23.6517 -0.0638287 24.2894 0.361556 24.6553L5.50418 29.081L10.1179 35.2984C8.76856 36.7359 8.79485 39.0031 10.1988 40.4075C10.8211 41.0294 11.6124 41.3808 12.4264 41.4624C12.3981 41.6468 12.3835 41.834 12.3835 42.0241C12.3835 43.0051 12.7656 43.9274 13.4591 44.6209C14.153 45.3148 15.0753 45.6969 16.0563 45.6969C16.0697 45.6969 16.0826 45.6961 16.0955 45.6957C16.0951 45.7207 16.0939 45.7454 16.0939 45.7705C16.0939 46.7514 16.476 47.6738 17.1695 48.3677C17.8634 49.0611 18.7857 49.4433 19.7667 49.4433C19.9604 49.4433 20.152 49.4275 20.3401 49.3984C20.4197 50.2152 20.7719 51.0101 21.3963 51.6345C22.112 52.3506 23.0525 52.7084 23.993 52.7084C24.9336 52.7084 25.8741 52.3506 26.5902 51.6345L27.1519 51.0728L27.3876 51.2629C28.0977 51.9507 29.0196 52.2944 29.9416 52.2944C30.8821 52.2944 31.8226 51.9365 32.5383 51.2204C33.269 50.4897 33.6269 49.5253 33.6119 48.5658C34.571 48.5804 35.5358 48.2229 36.2665 47.4926C36.9964 46.7624 37.3542 45.7988 37.3401 44.8396C38.3393 44.8554 39.2871 44.4717 39.9943 43.7645C40.725 43.0338 41.0828 42.0694 41.0679 41.1098C42.0278 41.1244 42.9918 40.7669 43.7225 40.0363C44.9695 38.7892 45.13 36.8617 44.2053 35.4387L47.574 28.3835L52.6386 24.0253C53.0571 23.665 53.121 23.0407 52.7841 22.6036ZM11.0762 13.0894L15.2751 15.7594L6.14104 26.8874L2.4808 23.737L11.0762 13.0894ZM11.6686 36.6829L12.9359 35.4157C12.9743 35.3773 13.0147 35.3409 13.056 35.3069C13.3038 35.1047 13.6039 34.9842 13.9217 34.9555C13.9306 34.9547 13.9399 34.9547 13.9488 34.9543C13.9941 34.9507 14.0394 34.9482 14.0851 34.9486C14.5193 34.9547 14.9229 35.1322 15.2221 35.448C15.8092 36.0687 15.7777 37.0828 15.1518 37.7088L13.9229 38.9376C13.3014 39.5591 12.2901 39.5591 11.6686 38.9376C11.0471 38.3157 11.0471 37.3044 11.6686 36.6829ZM14.929 43.151C14.6277 42.8502 14.4619 42.4499 14.4619 42.0241C14.4619 41.5983 14.6277 41.198 14.929 40.8967L17.3862 38.4395C17.8569 37.9688 18.5969 37.8398 19.1986 38.1265C19.8189 38.4221 20.1678 39.0953 20.0768 39.7726C20.0283 40.1341 19.8601 40.4746 19.6021 40.733L17.1837 43.151C16.8824 43.4523 16.4821 43.6181 16.0563 43.6181C15.6305 43.6181 15.2302 43.4523 14.929 43.151ZM18.6393 46.8974C18.3381 46.5966 18.1723 46.1963 18.1723 45.7705C18.1723 45.3447 18.3381 44.9444 18.6393 44.6431L21.0962 42.1858C21.5996 41.6828 22.4072 41.5744 23.0234 41.9331C23.5863 42.2606 23.881 42.9036 23.7844 43.5441C23.7314 43.8963 23.564 44.2274 23.3121 44.4794L20.894 46.8974C20.5928 47.1987 20.1925 47.3644 19.7667 47.3644C19.3409 47.3644 18.9406 47.1987 18.6393 46.8974ZM22.8657 50.1646C22.2442 49.5431 22.2442 48.5318 22.8657 47.9103L24.133 46.6431C24.1714 46.6047 24.2114 46.5687 24.2526 46.5347C24.2539 46.5339 24.2547 46.5331 24.2555 46.5323C24.4617 46.3649 24.7039 46.2529 24.9623 46.2039C24.9684 46.2031 24.9744 46.2023 24.9805 46.2015C25.025 46.1934 25.0703 46.187 25.1155 46.1829C25.1337 46.1813 25.1519 46.1813 25.1705 46.1801C25.2077 46.1781 25.2445 46.1756 25.2821 46.176C25.716 46.1821 26.12 46.3592 26.4192 46.6754C26.456 46.7142 26.4904 46.7547 26.5219 46.7963C26.9998 47.4211 26.9356 48.3491 26.3424 48.9427L25.12 50.165C24.4985 50.7865 23.4872 50.7861 22.8657 50.1646ZM42.2526 38.5664C41.6311 39.1883 40.6198 39.1879 39.9983 38.5664C39.9757 38.5438 39.9518 38.5228 39.9276 38.5029L33.2452 31.7502C32.8412 31.3422 32.1833 31.3389 31.7753 31.7429C31.3673 32.1464 31.3641 32.8043 31.7676 33.2123L38.5224 40.0375C38.5232 40.0383 38.5241 40.0391 38.5249 40.0399C39.1464 40.6614 39.1464 41.6731 38.5249 42.2946C38.2236 42.5959 37.8233 42.7616 37.3975 42.7616C36.9713 42.7616 36.571 42.5959 36.2702 42.2946L31.7515 37.729C31.3479 37.321 30.69 37.3178 30.282 37.7213C29.874 38.1253 29.8708 38.7832 30.2743 39.1912L34.7239 43.6868C34.7465 43.7151 34.7708 43.7422 34.7967 43.7681C35.4182 44.3896 35.4182 45.4013 34.7967 46.0228C34.1748 46.6443 33.1631 46.6439 32.5416 46.0224L30.0754 43.5303C29.6714 43.1223 29.0136 43.1187 28.6056 43.5226C28.1976 43.9262 28.1943 44.5841 28.5979 44.9921L30.9953 47.4142C31.018 47.4425 31.0422 47.47 31.0685 47.4959C31.69 48.1174 31.69 49.1291 31.0685 49.7506C30.447 50.3725 29.4357 50.3721 28.8142 49.7506C28.7426 49.679 28.6585 49.624 28.5785 49.5625C28.5105 49.5108 28.4927 49.4748 28.5267 49.3923C28.5611 49.3086 28.6124 49.233 28.6468 49.1489C28.6848 49.0551 28.7155 48.9584 28.7455 48.8614C28.9048 48.3478 28.9517 47.7955 28.8801 47.2626C28.7426 46.2399 28.1802 45.3172 27.3278 44.7333C26.8672 44.4183 26.3343 44.2117 25.7819 44.134C26.0496 42.9533 25.7281 41.6731 24.8919 40.7896C24.2037 40.0626 23.2741 39.6546 22.2741 39.6408C22.2377 39.6404 22.2013 39.6404 22.1645 39.6408C22.1868 38.6865 21.8398 37.7383 21.1819 37.0432C20.4933 36.3162 19.5637 35.9082 18.5641 35.8944C18.2669 35.8904 17.9669 35.9219 17.6774 35.9886C17.5536 35.1278 17.1198 34.3312 16.4627 33.7614C15.8096 33.1961 14.9884 32.8824 14.1138 32.8702C13.193 32.8569 12.2885 33.1966 11.6047 33.814L7.58743 28.4009L17.1982 16.6923L20.2612 17.5301L16.2609 24.589C15.7773 25.4426 15.6552 26.4333 15.9168 27.3787C16.1784 28.3244 16.7922 29.1113 17.6458 29.5949C17.6992 29.6253 17.753 29.654 17.8076 29.6815C17.8116 29.6835 17.8157 29.6855 17.8201 29.6875C17.9637 29.7591 18.1113 29.8206 18.2609 29.8723C18.9576 30.1137 19.7101 30.14 20.4359 29.9394C21.3813 29.6778 22.1682 29.0636 22.6518 28.2104L25.2514 23.623L29.893 23.9521L42.253 36.3117C42.8741 36.9336 42.8741 37.9449 42.2526 38.5664ZM42.6833 33.8027L31.0883 22.2081C31.0665 22.1859 31.0434 22.1649 31.0196 22.145C30.8526 22.0059 30.6455 21.9218 30.4272 21.9065L24.7439 21.5033C24.3509 21.4762 23.9603 21.6853 23.7662 22.0278L20.8435 27.1858C20.6336 27.5562 20.292 27.8226 19.8815 27.9363C19.4715 28.0499 19.0413 27.9965 18.6705 27.7866C18.3001 27.5768 18.0336 27.2351 17.92 26.8247C17.8064 26.4143 17.8593 25.984 18.0696 25.6136L21.9713 18.7278L23.5523 18.2729C23.5628 18.2697 23.5729 18.2656 23.5834 18.2624L29.4842 16.5584H36.6139L45.5146 27.8732L42.6833 33.8027ZM46.8761 26.242L38.645 15.7728L42.8458 13.1012L50.5371 23.0916L46.8761 26.242Z" fill="#377BE1"/>
<path d="M32.1085 12.5285C32.3746 12.5285 32.6407 12.4271 32.8437 12.2241L39.9426 5.12515C40.3485 4.71918 40.3485 4.06129 39.9426 3.65531C39.5366 3.24934 38.8787 3.24934 38.4727 3.65531L31.3738 10.7542C30.9678 11.1602 30.9678 11.8181 31.3738 12.2241C31.5768 12.4271 31.8429 12.5285 32.1085 12.5285Z" fill="#377BE1"/>
<path d="M20.1563 12.2241C20.3593 12.4271 20.6254 12.5285 20.8914 12.5285C21.1571 12.5285 21.4232 12.4271 21.6262 12.2241C22.0321 11.8181 22.0321 11.1602 21.6262 10.7542L14.5273 3.65531C14.1213 3.24934 13.4634 3.24934 13.0574 3.65531C12.6514 4.06129 12.6514 4.71918 13.0574 5.12515L20.1563 12.2241Z" fill="#377BE1"/>
<path d="M26.5001 12.5288C27.0739 12.5288 27.5393 12.0633 27.5393 11.4896V5.61464C27.5393 5.04086 27.0739 4.57544 26.5001 4.57544C25.9264 4.57544 25.4609 5.04086 25.4609 5.61464V11.4896C25.4609 12.0633 25.9264 12.5288 26.5001 12.5288Z" fill="#377BE1"/>
<path d="M25.5408 1.84791C25.7058 2.24782 26.117 2.51025 26.5509 2.4876C26.9795 2.46536 27.356 2.17584 27.4886 1.76784C27.6216 1.35661 27.4769 0.887961 27.1324 0.625937C26.781 0.358252 26.2909 0.343291 25.9233 0.58631C25.5133 0.85723 25.3544 1.39664 25.5408 1.84791Z" fill="#377BE1"/>
</g>
<defs>
<clipPath id="clip0_22_222">
<rect width="53" height="53" fill="white"/>
</clipPath>
</defs>
</svg>
