<svg width="23" height="19" viewBox="0 0 23 19" fill="none" xmlns="http://www.w3.org/2000/svg">
<path d="M11.5015 9.5L0.0126953 3.09245V1.58333C0.0126953 1.13802 0.154809 0.762804 0.439037 0.457682C0.723264 0.152561 1.05985 0 1.44879 0H21.5542C21.9431 0 22.2797 0.152561 22.5639 0.457682C22.8481 0.762804 22.9903 1.13802 22.9903 1.58333V3.09245L11.5015 9.5ZM10.7834 11.0833H12.2195L22.9903 4.92318V17.4167C22.9903 17.8455 22.8481 18.2166 22.5639 18.5299C22.2797 18.8433 21.9431 19 21.5542 19H1.44879C1.05985 19 0.723264 18.8433 0.439037 18.5299C0.154809 18.2166 0.0126953 17.8455 0.0126953 17.4167V4.92318L10.7834 11.0833Z" fill="white"/>
</svg>
