<svg width="58" height="58" viewBox="0 0 58 58" fill="none" xmlns="http://www.w3.org/2000/svg">
<path d="M55.4245 24.6294H53.7772C53.6446 23.8833 53.4747 23.1312 53.2707 22.3867C53.1035 21.7771 52.4716 21.4176 51.862 21.5847C51.2509 21.7513 50.8909 22.3803 51.0579 22.9896C51.2863 23.8235 51.4675 24.6668 51.5962 25.4958C51.7239 26.3194 52.421 26.9173 53.2538 26.9173H55.4245C55.6124 26.9173 55.7652 27.0697 55.7652 27.2572V30.7775C55.7652 30.9648 55.6124 31.1171 55.4245 31.1171H53.2538C52.421 31.1171 51.7238 31.7152 51.5964 32.5384C51.0419 36.1072 49.616 39.539 47.4727 42.4629C46.9795 43.1357 47.0491 44.0499 47.6377 44.6364L49.1736 46.1685C49.3063 46.3009 49.3063 46.5163 49.1736 46.6487L46.6779 49.1379C46.545 49.2704 46.3289 49.2703 46.1964 49.138L44.66 47.6056C44.0711 47.0185 43.1543 46.9498 42.4811 47.4415C39.5492 49.5793 36.1083 51.0013 32.5304 51.5542C31.7047 51.6819 31.1054 52.3772 31.1054 53.2074V55.3724C31.1054 55.5597 30.9526 55.7121 30.7647 55.7121H27.2352C27.0473 55.7121 26.8945 55.5597 26.8945 55.3724V53.2074C26.8945 52.3772 26.2952 51.6819 25.4695 51.5542C21.8916 51.0013 18.4507 49.5793 15.5192 47.4418C14.8453 46.9501 13.9288 47.019 13.3394 47.6059L11.8034 49.1379C11.6708 49.2704 11.4546 49.2703 11.322 49.138L8.82633 46.6487C8.69343 46.5163 8.69343 46.3008 8.82618 46.1685L10.3617 44.6369C10.951 44.0496 11.0204 43.1352 10.527 42.4628C8.3836 39.5387 6.9577 36.1069 6.40349 32.5384C6.27549 31.7149 5.57829 31.1171 4.7459 31.1171H2.57493C2.38713 31.1171 2.23435 30.9648 2.23435 30.7775V27.2572C2.23435 27.0697 2.38713 26.9173 2.57508 26.9173H4.74574C5.57813 26.9173 6.27533 26.3197 6.40333 25.4963C6.95755 21.9278 8.38345 18.4959 10.5266 15.5722C11.0202 14.8994 10.9507 13.985 10.362 13.3981L8.82587 11.8662C8.74344 11.784 8.72616 11.6902 8.72616 11.626C8.72616 11.5618 8.74344 11.4682 8.82602 11.3858L11.3217 8.89672C11.4041 8.81436 11.498 8.79727 11.5624 8.79727C11.6268 8.79727 11.7206 8.81436 11.8031 8.89672L13.3395 10.429C13.9282 11.0155 14.8444 11.0845 15.5186 10.5931C18.4503 8.45546 21.8911 7.03331 25.4686 6.48041C26.2946 6.3532 26.8942 5.65784 26.8942 4.82718V2.66223C26.8942 2.47493 27.047 2.32255 27.2349 2.32255H30.7645C30.9523 2.32255 31.1051 2.47493 31.1051 2.66223V4.82718C31.1051 5.65784 31.7047 6.3532 32.5301 6.48025C36.1081 7.03331 39.549 8.45546 42.4805 10.593C43.1543 11.0844 44.0711 11.0156 44.6602 10.4285L46.196 8.89672C46.3286 8.76418 46.5449 8.76418 46.6775 8.89672L49.1734 11.3859C49.2558 11.4682 49.273 11.5618 49.273 11.626C49.273 11.6902 49.2558 11.7839 49.1733 11.8662L47.6379 13.3978C47.0488 13.9847 46.9792 14.8989 47.4724 15.5719C48.1803 16.5373 48.8198 17.575 49.3736 18.6559C49.6619 19.2184 50.3526 19.4416 50.9168 19.1542C51.4809 18.8669 51.7045 18.1778 51.4164 17.6151C50.888 16.5836 50.2881 15.5873 49.6293 14.6472L50.7955 13.4841C51.2931 12.9878 51.567 12.3279 51.567 11.626C51.567 10.9239 51.293 10.2641 50.7955 9.76795L48.2997 7.27873C47.2725 6.25421 45.6012 6.25436 44.5739 7.27888L43.408 8.44189C40.4202 6.35869 36.9801 4.93685 33.399 4.30508V2.66223C33.399 1.21339 32.2172 0.034668 30.7645 0.034668H27.2349C25.7823 0.034668 24.6003 1.21339 24.6003 2.66223V4.30508C21.019 4.93685 17.5792 6.35839 14.5913 8.44189L13.4252 7.27888C12.9277 6.78256 12.2661 6.50923 11.5622 6.50923C10.8584 6.50923 10.1969 6.78241 9.69924 7.27888L7.20376 9.76795C6.70613 10.2641 6.43208 10.9239 6.43193 11.6259C6.43193 12.3278 6.70598 12.9876 7.20345 13.4841L8.36969 14.6471C6.28084 17.6273 4.85524 21.0584 4.22212 24.6296H2.57508C1.12241 24.6296 -0.0595703 25.8085 -0.0595703 27.2573V30.7776C-0.0595703 32.2264 1.12226 33.4052 2.57493 33.4052H4.22212C4.85539 36.9766 6.28084 40.4075 8.36984 43.3878L7.20361 44.551C6.17654 45.5755 6.17669 47.2425 7.20376 48.2667L9.69955 50.756C10.7271 51.7807 12.3983 51.7803 13.4252 50.756L14.5913 49.5929C17.5792 51.6762 21.0195 53.0981 24.6003 53.7297V55.3725C24.6003 56.8214 25.7823 58.0001 27.2349 58.0001H30.7644C32.217 58.0001 33.399 56.8214 33.399 55.3725V53.7297C36.9797 53.0981 40.4196 51.6764 43.408 49.5929L44.5741 50.756C45.6013 51.7803 47.2724 51.7803 48.2997 50.756L50.7955 48.2668C51.8227 47.2423 51.8227 45.5753 50.7955 44.551L49.6294 43.3878C51.718 40.4081 53.1436 36.9772 53.777 33.4052H55.4242C56.8769 33.4052 58.0588 32.2264 58.0588 30.7776V27.2573C58.0592 25.8083 56.8772 24.6294 55.4245 24.6294Z" fill="#377BE1"/>
<path d="M20.0994 33.8945L14.8138 38.3214C13.3865 36.1565 12.4411 33.636 12.1375 30.9001C12.0679 30.2722 11.5019 29.8183 10.8716 29.8889C10.242 29.9583 9.78792 30.5237 9.85766 31.1515C10.9373 40.8865 19.1666 48.2275 28.9995 48.2275C39.6201 48.2275 48.2606 39.6097 48.2606 29.0171C48.2606 18.4246 39.6201 9.80688 28.9995 9.80688C24.3894 9.80688 19.9291 11.4569 16.4398 14.4531C12.9881 17.4172 10.6942 21.5074 9.98076 25.9707C9.88105 26.5945 10.3073 27.181 10.9329 27.2804C11.5581 27.3805 12.1465 26.9546 12.2461 26.3308C12.8743 22.4009 14.8953 18.7984 17.9367 16.1869C21.0098 13.548 24.9387 12.0948 28.9997 12.0948C38.3554 12.0948 45.9668 19.6861 45.9668 29.0171C45.9668 32.4469 44.9374 35.6409 43.172 38.3102L37.8998 33.8944C35.6094 31.9761 32.8595 30.9117 30.0583 30.6974V27.5235H32.3245C36.0108 27.5235 39.0101 24.5323 39.0101 20.8554V19.0339C39.0101 17.8415 38.0375 16.8713 36.8417 16.8713H34.3854C31.8038 16.8713 29.5611 18.339 28.4475 20.4809C27.6923 19.8458 26.718 19.4621 25.6551 19.4621H24.0006C22.8485 19.4621 21.911 20.3971 21.911 21.5463V23.1964C21.911 25.5825 23.8573 27.5235 26.2494 27.5235H27.7642V30.711C25.0243 30.9561 22.3417 32.0165 20.0994 33.8945ZM41.7817 40.1334C38.669 43.6893 34.0931 45.9398 28.9995 45.9398C23.9191 45.9398 19.3256 43.7149 16.203 40.1455L21.5746 35.6464C25.877 32.043 32.1223 32.0432 36.4245 35.6464L41.7817 40.1334ZM29.9936 23.5395C29.9936 21.1243 31.9637 19.1593 34.3854 19.1593H36.716V20.8555C36.716 23.2708 34.746 25.2358 32.3244 25.2358H29.9936V23.5395ZM24.2049 23.1965V21.7501H25.6551C26.7825 21.7501 27.6996 22.665 27.6996 23.7894V25.2358H26.2494C25.122 25.2358 24.2049 24.3209 24.2049 23.1965Z" fill="#377BE1"/>
</svg>
