<svg width="41" height="39" viewBox="0 0 41 39" fill="none" xmlns="http://www.w3.org/2000/svg">
<path d="M22.599 30.5416V27.5627L33.704 12.4195M22.599 30.5416L21.606 31.7829M22.599 30.5416L25.5779 30.0451L39.2316 10.93L36.2527 8.94397L33.704 12.4195M33.704 12.4195L39.4799 16.3914L34.7632 22.8459" stroke="#377BE1" stroke-width="2" stroke-linecap="round" stroke-linejoin="round"/>
<path d="M26.3214 18.1293V9.9136C26.3214 8.00709 24.7759 6.46155 22.8694 6.46155H4.45205C2.54554 6.46155 1 8.00709 1 9.9136V33.7924C1 35.6989 2.54554 37.2444 4.45206 37.2444H22.8694C24.7759 37.2444 26.3214 35.6989 26.3214 33.7924V32.776" stroke="#377BE1" stroke-width="2" stroke-linecap="round" stroke-linejoin="round"/>
<path d="M5.96387 13.9089L7.94986 16.8879L10.6806 11.6747M11.4253 15.8949H21.3553" stroke="#377BE1" stroke-width="2" stroke-linecap="round" stroke-linejoin="round"/>
<path d="M5.96387 23.0942L7.94986 26.0732L10.6806 20.86M11.4253 25.0802H19.6176" stroke="#377BE1" stroke-width="2" stroke-linecap="round" stroke-linejoin="round"/>
<path d="M18.3777 6.46148V5.96498C18.3777 3.2229 16.1548 1 13.4127 1V1C10.6707 1 8.44775 3.2229 8.44775 5.96498V6.46148" stroke="#377BE1" stroke-width="2"/>
</svg>
