<svg width="26" height="20" viewBox="0 0 26 20" fill="none" xmlns="http://www.w3.org/2000/svg">
<path d="M22.4773 12.8162C22.3519 11.9825 21.6793 11.3325 20.8133 11.1388C17.4474 10.3837 16.6036 8.52875 16.4613 6.47125C15.8644 6.365 14.8025 6.25 13 6.25C11.1975 6.25 10.1357 6.365 9.53875 6.47125C9.39638 8.52875 8.55262 10.3837 5.18671 11.1388C4.32074 11.3338 3.64808 11.9825 3.52269 12.8162L2.87354 17.1187C2.64497 18.6337 3.80743 20 5.42442 20H20.5756C22.1913 20 23.3551 18.6337 23.1265 17.1187L22.4773 12.8162ZM13 16.865C11.1779 16.865 9.70071 15.465 9.70071 13.74C9.70071 12.015 11.1779 10.615 13 10.615C14.8221 10.615 16.2993 12.015 16.2993 13.74C16.2993 15.465 14.8208 16.865 13 16.865ZM25.9961 5C25.9647 3.125 20.9779 0.00125 13 0C5.02083 0.00125 0.0340008 3.125 0.00395966 5C-0.0260815 6.875 0.0313886 9.315 3.31501 8.90875C7.15636 8.4325 6.91995 7.14875 6.91995 5.31375C6.91995 4.03375 10.0442 3.725 13 3.725C15.9558 3.725 19.0788 4.03375 19.0801 5.31375C19.0801 7.14875 18.8437 8.4325 22.685 8.90875C25.9673 9.315 26.0261 6.875 25.9961 5Z" fill="white"/>
</svg>
