<svg width="58" height="58" viewBox="0 0 58 58" fill="none" xmlns="http://www.w3.org/2000/svg">
  <path
    d="M30.1328 45.9922C30.1328 46.6179 29.6257 47.125 29 47.125C28.3743 47.125 27.8672 46.6179 27.8672 45.9922C27.8672 45.3665 28.3743 44.8594 29 44.8594C29.6257 44.8594 30.1328 45.3665 30.1328 45.9922Z"
    fill="#377BE1"/>
  <path
    d="M54.2617 35.7969C54.2617 32.0489 51.2129 29 47.4648 29C43.7168 29 40.668 32.0489 40.668 35.7969C40.668 39.5449 43.7168 42.5938 47.4648 42.5938C51.2129 42.5938 54.2617 39.5449 54.2617 35.7969ZM47.4648 40.3281C44.9665 40.3281 42.9336 38.2953 42.9336 35.7969C42.9336 33.2985 44.9665 31.2656 47.4648 31.2656C49.9632 31.2656 51.9961 33.2985 51.9961 35.7969C51.9961 38.2953 49.9632 40.3281 47.4648 40.3281Z"
    fill="#377BE1"/>
  <path
    d="M47.4648 42.5938C44.6102 42.5938 41.7636 43.7788 39.8246 45.7001C37.2722 42.3459 33.3365 40.3281 29 40.3281C24.8471 40.3281 20.823 42.2229 18.1759 45.7001C16.2364 43.7792 13.3902 42.5938 10.5352 42.5938C4.82463 42.5938 0 47.2626 0 52.7891V55.0547C0 55.6804 0.507111 56.1875 1.13281 56.1875H56.8672C57.4929 56.1875 58 55.6804 58 55.0547V52.7891C58 47.2626 53.1754 42.5938 47.4648 42.5938ZM2.26562 52.7891C2.26562 48.4906 6.05258 44.8594 10.5352 44.8594C12.988 44.8594 15.4204 45.9462 16.9263 47.6737C15.9306 49.5968 15.4062 51.7403 15.4062 53.9219H2.26562V52.7891ZM29 42.5938C35.3035 42.5938 40.3281 47.7082 40.3281 53.9219H17.6719C17.6719 47.6255 22.7992 42.5938 29 42.5938ZM55.7344 53.9219H42.5938C42.5938 51.7403 42.0694 49.5968 41.0737 47.6737C42.5796 45.9462 45.012 44.8594 47.4648 44.8594C51.9474 44.8594 55.7344 48.4906 55.7344 52.7891V53.9219Z"
    fill="#377BE1"/>
  <path
    d="M17.332 35.7969C17.332 32.0489 14.2832 29 10.5352 29C6.78714 29 3.73828 32.0489 3.73828 35.7969C3.73828 39.5449 6.78714 42.5938 10.5352 42.5938C14.2832 42.5938 17.332 39.5449 17.332 35.7969ZM10.5352 40.3281C8.03677 40.3281 6.00391 38.2953 6.00391 35.7969C6.00391 33.2985 8.03677 31.2656 10.5352 31.2656C13.0335 31.2656 15.0664 33.2985 15.0664 35.7969C15.0664 38.2953 13.0335 40.3281 10.5352 40.3281Z"
    fill="#377BE1"/>
  <path
    d="M38.0625 31.2656C38.0625 26.2684 33.9972 22.2031 29 22.2031C24.0028 22.2031 19.9375 26.2684 19.9375 31.2656C19.9375 36.2628 24.0028 40.3281 29 40.3281C33.9972 40.3281 38.0625 36.2628 38.0625 31.2656ZM29 38.0625C25.252 38.0625 22.2031 35.0136 22.2031 31.2656C22.2031 27.5176 25.252 24.4688 29 24.4688C32.748 24.4688 35.7969 27.5176 35.7969 31.2656C35.7969 35.0136 32.748 38.0625 29 38.0625Z"
    fill="#377BE1"/>
  <path
    d="M37.9651 8.40095C37.8319 7.99075 37.4775 7.69206 37.0505 7.63011L32.1643 6.92078L29.9766 2.44794C29.7867 2.05898 29.392 1.8125 28.9593 1.8125C28.5265 1.8125 28.1318 2.05898 27.9415 2.44749L25.7542 6.92078L20.8681 7.62967C20.441 7.69162 20.0866 7.99075 19.9534 8.40095C19.8202 8.81116 19.9313 9.26118 20.2401 9.56209L23.7784 13.0105L22.9434 17.8803C22.8704 18.3051 23.0452 18.7348 23.3943 18.9879C23.7412 19.2401 24.2032 19.276 24.5873 19.0742L28.9593 16.7754L33.333 19.0742C33.7144 19.2751 34.1768 19.2414 34.526 18.9879C34.8747 18.7343 35.0495 18.3051 34.9765 17.8799L34.1406 13.0105L37.6784 9.56209C37.9873 9.26118 38.0983 8.81116 37.9651 8.40095ZM32.132 11.8038C31.8652 12.064 31.7431 12.4393 31.8063 12.8065L32.3546 16.001L29.4863 14.4929C29.1562 14.3195 28.7619 14.3195 28.4318 14.4929L25.5644 16.001L26.1122 12.8065C26.175 12.4388 26.0529 12.064 25.7861 11.8038L23.4656 9.54217L26.6715 9.07666C27.0423 9.02312 27.3623 8.78947 27.5264 8.45317L28.9593 5.52379L30.3917 8.45317C30.5563 8.78992 30.8762 9.02312 31.2466 9.07666L34.453 9.54217L32.132 11.8038Z"
    fill="#377BE1"/>
  <path
    d="M54.8975 16.8913C54.7643 16.4811 54.4099 16.1824 53.9829 16.1205L50.6725 15.6395L49.1923 12.6393C49.0016 12.2525 48.6082 12.0078 48.1767 12.0078C48.1767 12.0078 48.1767 12.0078 48.1763 12.0078C47.7453 12.0078 47.3515 12.2525 47.1608 12.6393L45.6797 15.6395L42.3689 16.1205C41.9423 16.1824 41.5878 16.4811 41.4547 16.8913C41.321 17.3015 41.4321 17.7515 41.741 18.0524L44.1362 20.3884L43.5707 23.6851C43.4981 24.1099 43.6725 24.5391 44.0216 24.7927C44.3703 25.0462 44.8327 25.0798 45.2142 24.8794L48.1763 23.3231L51.1375 24.8794C51.519 25.0798 51.9818 25.0462 52.3305 24.7927C52.6792 24.5396 52.8536 24.1099 52.781 23.6851L52.2155 20.3884L54.6112 18.0524C54.9201 17.7515 55.0307 17.3015 54.8975 16.8913ZM50.2078 19.1821C49.9406 19.4423 49.8189 19.8171 49.8822 20.1844L50.1601 21.8058L48.7038 21.0407C48.3737 20.8672 47.9794 20.8672 47.6497 21.0407L46.1921 21.8062L46.4704 20.1844C46.5333 19.8171 46.4116 19.4423 46.1448 19.1821L44.9659 18.0325L46.5948 17.7962C46.9638 17.7427 47.2829 17.5108 47.4479 17.1767L48.1763 15.701L48.9042 17.1763C49.0693 17.5108 49.3883 17.7427 49.7574 17.7962L51.3862 18.0325L50.2078 19.1821Z"
    fill="#377BE1"/>
  <path
    d="M16.3819 16.8913C16.2487 16.4811 15.8942 16.1824 15.4672 16.1205L12.1569 15.6394L10.6767 12.6393C10.486 12.2525 10.0926 12.0078 9.66112 12.0078C9.22968 12.0078 8.83585 12.2525 8.64513 12.6393L7.16407 15.6394L3.85325 16.1205C3.42667 16.1824 3.07222 16.4811 2.93903 16.8913C2.80539 17.3015 2.91646 17.7515 3.22533 18.0524L5.62061 20.3884L5.05553 23.6851C4.98252 24.1099 5.15731 24.5391 5.506 24.7927C5.8547 25.0462 6.31711 25.0798 6.699 24.8794L9.66068 23.3231L12.6219 24.8794C13.006 25.0812 13.468 25.0449 13.8149 24.7927C14.1636 24.5395 14.3384 24.1099 14.2654 23.6851L13.6999 20.3884L16.0956 18.0524C16.4045 17.7515 16.5151 17.3015 16.3819 16.8913ZM11.6918 19.1821C11.4249 19.4423 11.3033 19.8171 11.3661 20.1844L11.6444 21.8058L10.1877 21.0407C9.85804 20.8672 9.46377 20.8672 9.1341 21.0407L7.67605 21.8062L7.95438 20.1844C8.01766 19.8171 7.89553 19.4423 7.6287 19.1821L6.44987 18.0325L8.07917 17.7962C8.44778 17.7427 8.76682 17.5108 8.93188 17.1767L9.66024 15.701L10.3882 17.1763C10.5532 17.5108 10.8723 17.7427 11.2413 17.7962L12.8702 18.0325L11.6918 19.1821Z"
    fill="#377BE1"/>
  <path
    d="M33.964 46.3426C33.441 45.9988 32.7387 46.1443 32.3953 46.6674C32.0515 47.19 32.1971 47.8922 32.7201 48.2361C33.7675 48.9242 34.6047 49.8835 35.1411 51.0101C35.4092 51.5743 36.0845 51.8155 36.6504 51.546C37.2155 51.2774 37.4554 50.6012 37.1868 50.0366C36.4726 48.5356 35.3579 47.2581 33.964 46.3426Z"
    fill="#377BE1"/>
</svg>
