<svg width="38" height="25" viewBox="0 0 38 25" fill="none" xmlns="http://www.w3.org/2000/svg">
<path d="M30.0044 16.9586C29.2586 15.4038 26.5907 13.2457 24.0131 11.1604C22.5754 9.99824 21.2169 8.89943 20.3508 8.03337C20.1339 7.81487 19.8093 7.74518 19.5228 7.84812C18.9892 8.04131 18.6598 8.19012 18.4002 8.30568C18.0044 8.48299 17.8714 8.54318 17.3378 8.59699C17.1018 8.62074 16.8897 8.74743 16.7583 8.94374C15.6388 10.6173 14.4798 10.4748 13.7056 10.2152C13.4586 10.1329 13.4143 10.0267 13.3905 9.92543C13.2243 9.23037 14.0587 7.61218 15.1401 6.53073C17.713 3.95623 19.0398 3.31179 21.8423 4.56423C25.0216 5.98604 28.2073 7.09918 28.239 7.11024C28.6555 7.25429 29.1035 7.03579 29.2476 6.62254C29.3901 6.20929 29.1731 5.75804 28.7599 5.61398C28.7282 5.60293 25.6059 4.51198 22.4899 3.11704C18.8593 1.4941 16.8674 2.56285 14.0222 5.40973C12.9392 6.49273 11.4682 8.68404 11.8482 10.2912C12.0113 10.9752 12.4927 11.4819 13.2083 11.7177C15.0022 12.3099 16.6394 11.743 17.8586 10.1249C18.3621 10.0474 18.636 9.93337 19.0476 9.74812C19.1964 9.68162 19.3706 9.60406 19.6018 9.51062C20.5075 10.3609 21.7298 11.3504 23.0171 12.3907C25.3446 14.2732 27.984 16.4076 28.5778 17.6426C28.8707 18.2522 28.5556 18.6496 28.3418 18.8317C28.0283 19.1009 27.5993 19.1864 27.3665 19.0232C27.11 18.8475 26.7759 18.8364 26.5115 18.9947C26.2455 19.153 26.0967 19.4523 26.1299 19.7595C26.1838 20.263 25.723 20.5512 25.5235 20.6509C25.0168 20.9074 24.488 20.8631 24.2901 20.6794C24.0684 20.4736 23.7501 20.4134 23.4683 20.5179C23.1865 20.624 22.9901 20.8837 22.9616 21.1845C22.9141 21.7038 22.5294 22.2026 22.0274 22.3973C21.7852 22.4891 21.4337 22.5446 21.1186 22.2564C20.9223 22.0791 20.6499 22.0109 20.3951 22.0727C20.137 22.136 19.9296 22.3229 19.8393 22.5714C19.8092 22.6506 19.7411 22.8406 19.0001 22.8406C18.4729 22.8406 17.5244 22.4844 17.0606 22.1772C16.5048 21.8114 13.0199 19.2116 10.01 16.6909C9.58724 16.3347 8.85574 15.5715 8.20974 14.897C7.63655 14.2985 7.11249 13.7554 6.8433 13.5274C6.50605 13.2424 6.0073 13.2852 5.72705 13.6209C5.44524 13.9549 5.48636 14.4553 5.82049 14.7371C6.06593 14.9445 6.54093 15.4464 7.06499 15.9927C7.77118 16.7305 8.50105 17.4937 8.99193 17.9054C11.9401 20.3738 15.4836 23.0386 16.1897 23.5024C16.7724 23.8856 18.028 24.4239 19.0002 24.4239C19.7807 24.4239 20.3809 24.245 20.7973 23.8951C21.3546 24.1121 21.9879 24.1136 22.5975 23.8761C23.3179 23.5974 23.9101 23.0354 24.2458 22.3546C24.8696 22.4876 25.5837 22.3941 26.2328 22.068C26.8678 21.7482 27.3269 21.2589 27.5549 20.6873C28.1851 20.7205 28.8342 20.4973 29.3709 20.0366C30.2799 19.2592 30.53 18.0496 30.0044 16.9586Z" fill="#377BE1"/>
<path d="M15.8332 3.84076H8.7082C8.2712 3.84076 7.9165 4.19545 7.9165 4.63245C7.9165 5.06945 8.2712 5.42414 8.7082 5.42414H15.8332C16.2702 5.42414 16.6249 5.06945 16.6249 4.63245C16.6249 4.19545 16.2702 3.84076 15.8332 3.84076Z" fill="#377BE1"/>
<path d="M32.3236 15.2739C32.0782 14.9114 31.5874 14.8116 31.2248 15.0586L28.91 16.6134C28.5475 16.8572 28.4508 17.3497 28.6947 17.7122C28.8483 17.9387 29.0985 18.0622 29.3534 18.0622C29.5038 18.0622 29.6574 18.0194 29.7936 17.9276L32.1084 16.3728C32.4709 16.1289 32.5674 15.6366 32.3236 15.2739Z" fill="#377BE1"/>
<path d="M27.4089 19.0519C26.8421 18.6054 24.3071 16.0103 22.7396 14.3763C22.4372 14.0596 21.9353 14.0485 21.6202 14.3525C21.3035 14.655 21.294 15.1568 21.5964 15.472C22.0034 15.8963 25.5928 19.6377 26.4272 20.2964C26.5713 20.4104 26.7454 20.4659 26.9164 20.4659C27.1492 20.4659 27.3819 20.3614 27.5403 20.1634C27.8111 19.8214 27.7525 19.3226 27.4089 19.0519Z" fill="#377BE1"/>
<path d="M24.2452 20.6399C23.2967 19.8814 20.9139 17.3497 20.3755 16.7639C20.0778 16.4409 19.579 16.4219 19.256 16.7164C18.9346 17.0124 18.9125 17.5144 19.2085 17.8358C19.237 17.8659 22.0807 20.936 23.2556 21.8765C23.4012 21.9921 23.577 22.0491 23.7496 22.0491C23.9807 22.0491 24.2119 21.9461 24.3686 21.753C24.6411 21.4109 24.5856 20.9122 24.2452 20.6399Z" fill="#377BE1"/>
<path d="M21.0947 22.2344C19.9657 21.2829 17.6557 18.8239 17.2044 18.341C16.9052 18.0212 16.4032 18.0037 16.085 18.303C15.7652 18.6022 15.7493 19.1025 16.047 19.4224C16.6962 20.1175 18.9065 22.4609 20.0734 23.4457C20.2222 23.5707 20.4027 23.6325 20.5832 23.6325C20.8081 23.6325 21.0329 23.5359 21.1897 23.3507C21.4715 23.015 21.4287 22.5162 21.0947 22.2344Z" fill="#377BE1"/>
<path d="M9.25301 2.47433C7.89606 1.18864 2.47 0.772195 0.839192 0.675637C0.614383 0.664578 0.406942 0.738946 0.248633 0.889387C0.09025 1.0382 0 1.2472 0 1.4657V15.7157C0 16.1527 0.354692 16.5074 0.791692 16.5074H5.54169C5.88369 16.5074 6.1877 16.2873 6.29375 15.9612C6.40931 15.6065 9.13745 7.23384 9.49681 3.11714C9.51745 2.87645 9.42876 2.63895 9.25301 2.47433ZM4.96375 14.9241H1.58331V2.31439C4.12775 2.51545 6.87325 2.95245 7.87075 3.43695C7.4512 6.90445 5.55275 13.0652 4.96375 14.9241Z" fill="#377BE1"/>
<path d="M37.2083 2.25745C30.9921 2.25745 27.5436 3.8487 27.3995 3.9152C27.1937 4.01176 27.0401 4.1907 26.9768 4.40764C26.9135 4.62458 26.9451 4.85733 27.0638 5.05045C28.0423 6.62589 31.1061 15.3754 31.6951 17.5097C31.7901 17.8533 32.102 18.0908 32.4583 18.0908H37.2083C37.6453 18.0908 38 17.7361 38 17.2991V3.04906C38 2.61051 37.6453 2.25745 37.2083 2.25745ZM36.4167 16.5075H33.0505C32.3 14.0628 30.0833 7.68826 28.8467 5.05364C30.0548 4.64358 32.6499 3.93895 36.4167 3.85033V16.5075Z" fill="#377BE1"/>
</svg>
