<svg width="58" height="58" viewBox="0 0 58 58" fill="none" xmlns="http://www.w3.org/2000/svg">
<path d="M51.8115 11.0944H53.6036C54.2287 11.0944 54.7357 10.5875 54.7357 9.96233C54.7357 9.3372 54.2287 8.83026 53.6036 8.83026H49.3017C48.6766 8.83026 48.1697 9.3372 48.1697 9.96233V14.2642C48.1697 14.8893 48.6766 15.3963 49.3017 15.3963C49.9269 15.3963 50.4338 14.8893 50.4338 14.2642V13.0186C53.8687 17.6172 55.7359 23.1968 55.7359 29C55.7359 43.7423 43.7423 55.7359 29 55.7359C14.2577 55.7359 2.26414 43.7423 2.26414 29C2.26414 14.2577 14.2577 2.26414 29 2.26414C30.0903 2.26414 31.1876 2.33037 32.2617 2.46089C32.8815 2.53584 33.4468 2.09444 33.5222 1.47373C33.5977 0.853128 33.1557 0.288678 32.535 0.213282C31.3706 0.0717732 30.1813 0 29 0C21.2538 0 13.9712 3.01651 8.49392 8.49392C3.01651 13.9712 0 21.2538 0 29C0 36.7462 3.01651 44.0288 8.49392 49.5061C13.9712 54.9835 21.2538 58 29 58C36.7462 58 44.0288 54.9835 49.5061 49.5061C54.9835 44.0288 58 36.7462 58 29C58 22.4633 55.8162 16.188 51.8115 11.0944Z" fill="#377BE1"/>
<path d="M12.28 17.0956C11.7517 16.7612 11.0524 16.9185 10.7179 17.4465C8.13348 21.5283 6.98941 26.4372 7.49647 31.269C8.01099 36.1724 10.218 40.7965 13.7108 44.2895C17.9261 48.5048 23.4632 50.6124 29.0004 50.6124C34.5375 50.6124 40.0745 48.5049 44.2899 44.2895C52.7205 35.8589 52.7205 22.1411 44.2899 13.7106C40.8023 10.2231 36.1858 8.01697 31.2905 7.49848C26.4677 6.98735 21.5641 8.12248 17.484 10.6942C16.955 11.0276 16.7966 11.7266 17.1299 12.2555C17.4633 12.7846 18.1624 12.9429 18.6913 12.6097C26.3823 7.76214 36.2502 8.87304 42.6888 15.3116C50.2366 22.8594 50.2366 35.1406 42.6888 42.6884C35.141 50.2364 22.8597 50.2364 15.3119 42.6884C8.96238 36.3389 7.83484 26.2325 12.631 18.6579C12.9653 18.1295 12.8082 17.4301 12.28 17.0956Z" fill="#377BE1"/>
<path d="M43.717 30.1504H45.1131C45.7382 30.1504 46.2452 29.6434 46.2452 29.0183C46.2452 28.3932 45.7382 27.8862 45.1131 27.8862H43.717C43.0919 27.8862 42.585 28.3932 42.585 29.0183C42.585 29.6434 43.0918 30.1504 43.717 30.1504Z" fill="#377BE1"/>
<path d="M11.7549 28.9817C11.7549 29.6068 12.2618 30.1137 12.887 30.1137H14.283C14.9081 30.1137 15.4151 29.6068 15.4151 28.9817C15.4151 28.3565 14.9081 27.8496 14.283 27.8496H12.887C12.2618 27.8496 11.7549 28.3564 11.7549 28.9817Z" fill="#377BE1"/>
<path d="M30.1504 14.283V12.887C30.1504 12.2618 29.6434 11.7549 29.0183 11.7549C28.3932 11.7549 27.8862 12.2618 27.8862 12.887V14.283C27.8862 14.9081 28.3932 15.4151 29.0183 15.4151C29.6434 15.4151 30.1504 14.9081 30.1504 14.283Z" fill="#377BE1"/>
<path d="M27.8496 43.7169V45.113C27.8496 45.7381 28.3565 46.2451 28.9817 46.2451C29.6068 46.2451 30.1137 45.7381 30.1137 45.113V43.7169C30.1137 43.0918 29.6068 42.5848 28.9817 42.5848C28.3565 42.5848 27.8496 43.0917 27.8496 43.7169Z" fill="#377BE1"/>
<path d="M23.3257 21.7245C22.8835 21.2825 22.1669 21.2825 21.7246 21.7245C21.2825 22.1666 21.2825 22.8834 21.7246 23.3256L25.5613 27.1623C25.2673 27.7102 25.1001 28.3359 25.1001 29C25.1001 31.1504 26.8496 32.8999 29.0001 32.8999C31.1506 32.8999 32.9001 31.1504 32.9001 29C32.9001 28.3359 32.7328 27.7102 32.4389 27.1623L40.1803 19.4208C40.6224 18.9788 40.6224 18.2619 40.1803 17.8198C39.7381 17.3778 39.0215 17.3778 38.5792 17.8198L30.8378 25.5612C30.2899 25.2672 29.6642 25.1 29.0001 25.1C28.336 25.1 27.7103 25.2673 27.1624 25.5612L23.3257 21.7245ZM30.6359 29C30.6359 29.902 29.9021 30.6358 29.0001 30.6358C28.0981 30.6358 27.3643 29.902 27.3643 29C27.3643 28.0979 28.0981 27.3641 29.0001 27.3641C29.9021 27.3641 30.6359 28.0979 30.6359 29Z" fill="#377BE1"/>
<path d="M15.3109 15.3109C15.5226 15.1003 15.6436 14.8082 15.6436 14.5105C15.6436 14.2128 15.5226 13.9218 15.3109 13.7101C15.1003 13.4997 14.8092 13.3784 14.5105 13.3784C14.2128 13.3784 13.9207 13.4995 13.7101 13.7101C13.4997 13.9207 13.3784 14.2128 13.3784 14.5105C13.3784 14.8094 13.4995 15.1003 13.7101 15.3109C13.9207 15.5213 14.2128 15.6426 14.5105 15.6426C14.8092 15.6426 15.1003 15.5213 15.3109 15.3109Z" fill="#377BE1"/>
<path d="M36.842 3.3823C37.141 3.3823 37.4331 3.26219 37.6435 3.05061C37.8541 2.84004 37.9753 2.54899 37.9753 2.25023C37.9753 1.9525 37.8542 1.66043 37.6435 1.44986C37.4331 1.23941 37.141 1.11816 36.842 1.11816C36.5443 1.11816 36.2522 1.2393 36.0418 1.44986C35.8312 1.66043 35.71 1.9525 35.71 2.25023C35.71 2.5491 35.8311 2.84004 36.0418 3.05061C36.2522 3.26219 36.5443 3.3823 36.842 3.3823Z" fill="#377BE1"/>
</svg>
