<svg width="32" height="32" viewBox="0 0 32 32" fill="none" xmlns="http://www.w3.org/2000/svg">
<path d="M31.0617 15.8989H30.2542L31.0023 13.2987C31.3276 12.168 31.1158 10.9745 30.4214 10.0243C30.2227 9.75242 29.9921 9.51386 29.7377 9.30986L31.1981 7.91017C31.2029 7.90561 31.2076 7.90099 31.2123 7.89623C32.2617 6.84686 32.2627 5.1403 31.2145 4.09212C30.7084 3.58599 30.0338 3.30743 29.3146 3.30743C29.3138 3.30743 29.313 3.30743 29.3121 3.30743C29.1457 3.30756 28.9816 3.32262 28.8215 3.35193L28.822 2.68931C28.8227 1.97237 28.5427 1.29731 28.0338 0.788311C27.5254 0.279874 26.8513 6.24999e-05 26.1353 6.24999e-05C26.1345 6.24999e-05 26.1337 6.24999e-05 26.1329 6.24999e-05C24.6506 0.0014375 23.4437 1.20837 23.4423 2.69074L23.4417 3.32887C22.6567 3.24224 21.8405 3.49956 21.2405 4.09956C20.7338 4.6063 20.4544 5.28168 20.4538 6.00124C20.4533 6.47599 20.575 6.93105 20.8037 7.33255C20.7242 7.32836 20.6443 7.32599 20.5638 7.32599C20.0635 7.32599 19.5642 7.41111 19.093 7.57392C18.9724 7.45886 18.8457 7.35011 18.7129 7.24892C18.7857 6.54805 18.9185 5.83893 19.0266 5.38336C19.2032 4.63868 19.0327 3.86768 18.5586 3.26799C18.0857 2.66981 17.377 2.32662 16.6141 2.32662C15.5337 2.32662 14.585 3.01749 14.2538 4.04449L13.1915 7.3238C13.0929 7.40311 12.998 7.48667 12.9066 7.57386C12.7607 7.52336 12.6122 7.48036 12.4617 7.44511C12.5195 7.19455 12.5497 6.93674 12.5497 6.67624C12.5497 5.05455 11.4153 3.69281 9.89817 3.34312C9.85704 1.49275 8.33902 0 6.47895 0C4.61887 0 3.10073 1.49287 3.0596 3.34331C1.54258 3.69299 0.408051 5.05474 0.408051 6.67642C0.408051 7.35005 0.609233 8.00211 0.971161 8.55355C0.360928 9.18242 0.000187495 10.0355 0.000187495 10.9382C0.000187495 12.0875 0.571922 13.1341 1.48708 13.7602C1.4449 13.9758 1.42334 14.1957 1.42334 14.4155C1.42334 14.9232 1.55383 15.432 1.7842 15.8988H0.937474C0.419739 15.8988 0 16.3186 0 16.8363V31.0625C0 31.5803 0.419739 32 0.937474 32H31.0617C31.5794 32 31.9991 31.5803 31.9991 31.0625V16.8364C31.9991 16.3187 31.5794 15.8989 31.0617 15.8989ZM25.0509 15.8989V11.8134C25.0509 11.317 24.9687 10.8397 24.8193 10.393C24.8537 10.388 24.8868 10.3844 24.9178 10.3826C24.9558 10.3804 27.4673 10.3774 27.4866 10.3779C28.0517 10.3939 28.5697 10.6683 28.9077 11.1308C29.2576 11.6095 29.3643 12.2108 29.2005 12.7804L29.183 12.8411L27.5823 12.843C27.0645 12.8437 26.6453 13.2639 26.6459 13.7817C26.6465 14.299 27.0661 14.718 27.5834 14.718H27.5846L28.6433 14.7167L28.3032 15.899H25.0509V15.8989ZM22.5663 5.42543C22.8836 5.10805 23.3998 5.10637 23.717 5.42168C23.9853 5.68849 24.388 5.76774 24.7376 5.62261C25.0871 5.47737 25.3151 5.13618 25.3154 4.75762L25.3171 2.69243C25.3176 2.24218 25.6842 1.87556 26.1344 1.87512H26.1352C26.3502 1.87512 26.5537 1.96 26.7078 2.11425C26.8623 2.26862 26.9471 2.47231 26.947 2.68774L26.945 4.94712C26.9447 5.32636 27.1729 5.66855 27.5233 5.81386C27.8734 5.95905 28.277 5.87905 28.5453 5.61093L28.7362 5.42005C28.8893 5.26705 29.0943 5.18261 29.3137 5.18243H29.3145C29.5329 5.18243 29.7368 5.26605 29.8887 5.41793C30.2039 5.73318 30.2049 6.24586 29.8923 6.56468L27.8456 8.5263C27.7444 8.51511 27.6426 8.50655 27.5396 8.50361C27.5026 8.50255 27.4656 8.50211 27.4277 8.50211L25.0306 8.50417C24.9565 8.50423 24.8815 8.50648 24.8071 8.51086C24.7208 8.51598 24.6341 8.52542 24.5477 8.53798L22.5643 6.57793C22.247 6.2608 22.248 5.7438 22.5663 5.42543ZM23.176 11.8134V15.8989H20.4869V10.82C20.4869 10.2594 20.3827 9.72292 20.1941 9.22767C20.3155 9.21061 20.4387 9.20098 20.5638 9.20098C22.0042 9.20105 23.176 10.3729 23.176 11.8134ZM11.4358 9.20105C11.5597 9.20105 11.6832 9.2108 11.8053 9.22823C11.6168 9.72329 11.5126 10.2597 11.5126 10.8201V15.899H8.82351V11.8134C8.82351 10.3729 9.99535 9.20105 11.4358 9.20105ZM13.3875 10.8201C13.3875 9.37967 14.5594 8.2078 15.9998 8.2078C17.4402 8.2078 18.612 9.37967 18.612 10.8201V15.899H13.3875V10.8201ZM16.0378 4.62137C16.1187 4.37037 16.3502 4.20174 16.614 4.20174C16.8685 4.20174 17.02 4.3453 17.0877 4.43093C17.156 4.51737 17.2617 4.6998 17.2022 4.95068C17.1092 5.34299 17.0062 5.86786 16.9256 6.4293C16.6267 6.36636 16.3171 6.33274 15.9998 6.33274C15.8214 6.33274 15.6459 6.34436 15.473 6.36468L16.0378 4.62137ZM3.29829 14.4155C3.29829 14.1699 3.35453 13.9348 3.46553 13.7168C3.58915 13.4739 3.6009 13.1892 3.49778 12.9368C3.3946 12.6845 3.18673 12.4896 2.92836 12.4028C2.29844 12.1914 1.8752 11.6027 1.8752 10.9381C1.8752 10.34 2.22606 9.79004 2.76905 9.53692C3.07017 9.39654 3.27454 9.1073 3.30622 8.77661C3.33791 8.44592 3.19223 8.12311 2.92323 7.92817C2.51643 7.63324 2.28313 7.17699 2.28313 6.67636C2.28313 5.82436 2.97629 5.13118 3.82827 5.13118C3.88758 5.13118 3.94852 5.13499 4.01445 5.14293C4.33363 5.18099 4.65044 5.05312 4.85337 4.80362C5.0563 4.55412 5.11717 4.21799 5.01468 3.91318C4.96105 3.75368 4.9338 3.58787 4.9338 3.42018C4.9338 2.56818 5.62697 1.875 6.47895 1.875C7.33093 1.875 8.02409 2.56818 8.02409 3.42018C8.02409 3.58787 7.99685 3.75368 7.94322 3.91318C7.84072 4.21799 7.9016 4.55412 8.10453 4.80362C8.30746 5.05312 8.62414 5.18093 8.94344 5.14293C9.00944 5.13499 9.07032 5.13118 9.12969 5.13118C9.98167 5.13118 10.6748 5.82436 10.6748 6.67636C10.6748 6.94211 10.6052 7.2013 10.477 7.43024C8.46214 7.87074 6.94875 9.66811 6.94875 11.8133V15.8989H4.25082C3.71421 15.61 3.29829 14.9772 3.29829 14.4155ZM30.1242 30.1251H1.87495V17.7739H30.1242V30.1251Z" fill="#377BE1"/>
<path d="M19.0733 20H12.9267C11.3129 20 10 21.1216 10 22.5001C10 23.8785 11.3129 25 12.9267 25H19.0733C20.6871 25 22 23.8785 22 22.5C22 21.1214 20.6871 20 19.0733 20ZM19.0733 23.3333H12.9267C12.3888 23.3333 11.9511 22.9595 11.9511 22.5C11.9511 22.0405 12.3888 21.6667 12.9267 21.6667H19.0733C19.6112 21.6667 20.0489 22.0405 20.0489 22.5001C20.0489 22.9595 19.6112 23.3333 19.0733 23.3333Z" fill="#377BE1"/>
</svg>
